<?xml version="1.0" encoding="utf-8"?>
<!-- Generator: Adobe Illustrator 27.0.0, SVG Export Plug-In . SVG Version: 6.00 Build 0)  -->
<svg version="1.1" id="Layer_1" xmlns="http://www.w3.org/2000/svg" xmlns:xlink="http://www.w3.org/1999/xlink" x="0px" y="0px"
	 viewBox="0 0 135 51" style="enable-background:new 0 0 135 51;" xml:space="preserve">
<style type="text/css">
	.st0{fill:#101D2B;}
	.st1{fill:#E10718;}
	.st2{fill:#FFFFFF;}
</style>
<g>
	<path class="st0" d="M111.9,6.6c-5.5,5.6-10.9,11.1-16.3,16.7c0.1-0.2,0.1-0.4,0.2-0.5c2.5-5.9,4.9-11.7,7.4-17.6
		c0.4-1,1.2-1.3,2.2-1c2.1,0.7,4.2,1.5,6.2,2.2C111.7,6.5,111.8,6.6,111.9,6.6z"/>
	<path class="st0" d="M92.4,25.5c0-0.8,0-1.7,0-2.5c-0.1-5.2-0.3-10.3-0.4-15.5c0-1,0.6-1.7,1.6-1.8c2.2-0.2,4.4-0.4,6.6-0.6
		c0.1,0,0.2,0,0.4,0c-2.7,6.8-5.3,13.6-7.9,20.4C92.5,25.5,92.5,25.5,92.4,25.5z"/>
</g>
<g>
	<rect x="7.7" y="17.1" class="st1" width="3.3" height="2.9"/>
	<rect x="3.2" y="17.1" class="st1" width="3.3" height="2.9"/>
	<rect x="16.2" y="35.1" class="st1" width="3.3" height="2.9"/>
	<rect x="27.3" y="35.1" class="st1" width="3.3" height="2.9"/>
	<rect x="22.8" y="35.1" class="st1" width="3.3" height="2.9"/>
	<path class="st1" d="M73.1,8.7h-4.5l-6.5,7.1h0l-6.3,7l1.2,2.7h5.6c1.1,0,1.9,0.2,2.5,0.6c0.6,0.4,1,1,1,1.8c0,0.5-0.1,0.9-0.4,1.2
		c-0.2,0.4-0.6,0.7-1,0.9c-0.4,0.2-0.8,0.3-1.3,0.3h-8.6c-0.9,0-1.5-0.1-2-0.2c-0.4-0.1-0.8-0.4-1.1-0.8c0.1-0.5,0.1-0.9,0.1-1.2V21
		h-3.2v6.9c0,0.9-0.2,1.5-0.6,2c-0.4,0.4-0.9,0.6-1.5,0.6c-0.6,0-1.2-0.2-1.7-0.5c-0.5-0.4-0.8-0.9-0.8-1.6v-6.4H41v5.9
		c0,0.8-0.2,1.4-0.6,1.9c-0.4,0.5-0.9,0.7-1.6,0.7h-1.4v-8.5h-3.2v8.5H32c-0.9,0-1.5-0.1-1.9-0.2c-0.4-0.1-0.8-0.4-1.1-0.7
		c0.1-0.4,0.1-0.8,0.1-1.2v-6.6h-3.2v6.1c0,0.8-0.2,1.4-0.6,1.9c-0.4,0.5-0.9,0.7-1.6,0.7h-2c-1,0-1.7-0.3-2.2-0.8
		c0.1-0.4,0.1-0.8,0.1-1.3v-6.4h-3.2v5.9c0,0.8-0.2,1.4-0.6,1.9c-0.4,0.5-0.9,0.7-1.6,0.7h-0.5h-0.5c-0.6,0-1-0.2-1.3-0.5
		c-0.3-0.3-0.4-0.9-0.4-1.7l0-6.1c-2-0.3-3.5-0.5-4.5-0.5c-1.2,0-2.3,0.2-3.2,0.7c-0.9,0.5-1.6,1.2-2.2,2.1c-0.5,0.9-0.8,1.9-0.8,3
		c0,1.1,0.2,2.1,0.7,3c0.5,0.9,1.1,1.5,2,2c0.8,0.5,1.8,0.7,2.8,0.7h0.5l1.2-2.7H6.9c-0.9,0-1.6-0.3-2-0.8c-0.5-0.5-0.7-1.2-0.7-2.1
		c0-2.1,0.9-3.1,2.8-3.1c0.4,0,0.9,0.1,1.4,0.2v4.2c0,1.3,0.3,2.4,1,3.2c0.7,0.8,1.7,1.2,2.9,1.2h1.4h1.4c1.4,0,2.4-0.5,3.3-1.4
		c0.5,0.5,1,0.8,1.6,1.1c0.6,0.2,1.1,0.4,1.6,0.4c0,0,0,0,0,0h3c0.7,0,1.4-0.2,2-0.5c0.6-0.3,1.1-0.7,1.5-1.3
		c0.5,0.6,1.1,1.1,1.6,1.3c0.6,0.2,1.3,0.4,2.3,0.4h7.8c1.4,0,2.5-0.5,3.3-1.5c0.4,0.5,0.9,0.9,1.6,1.1c0.6,0.3,1.4,0.4,2.5,0.4
		c0.8,0,1.5-0.2,2.2-0.5c0.7-0.3,1.2-0.8,1.6-1.3c0.5,0.7,1.1,1.1,1.7,1.4c0.6,0.3,1.4,0.4,2.3,0.4c0,0,0,0,0,0h9.1
		c1.5,0,2.7-0.5,3.8-1.6c0.5,0.5,1,0.9,1.6,1.2s1.2,0.4,1.7,0.4l0,0l0,0h5.4V15.8h-3.1v14.6H71l0,0l0,0c-1,0-1.7-0.2-2.1-0.7
		c0.3-0.6,0.4-1.3,0.4-2c0-1.5-0.5-2.7-1.6-3.5c-1.1-0.9-2.6-1.3-4.5-1.3h-4.1"/>
	<rect x="80.3" y="15.8" class="st1" width="3.2" height="17.3"/>
</g>
<g>
	<g>
		<g>
			<path class="st1" d="M129.7,30.4"/>
			<path class="st0" d="M123.3,15c0.8-0.7,1.9-0.7,2.7,0c0.7,0.7,0.7,1.9,0,2.7c-0.8,0.8-2,0.7-2.7,0
				C122.5,16.9,122.5,15.8,123.3,15z"/>
		</g>
	</g>
</g>
<g>
	<path class="st2" d="M985.9,412.8c0,11.7,0,23.3,0,35c-124.9,0-249.8,0-374.7,0c-0.1-6.8-0.1-13.6-0.2-20.5c-7.8,0-15.2,0-22.9,0
		c0,6.9,0,13.7,0,20.5c-3,0-6.1,0-9.1,0c0-6.8-0.1-13.6-0.1-20.5c-7.8,0-15.2,0-22.9,0c0,6.9,0,13.7,0,20.5c-7.8,0-15.7,0-23.5,0
		c0-6.8-0.1-13.6-0.1-20.5c-7.8,0-15.2,0-22.9,0c0,6.9,0,13.7,0,20.5c-36.5,0-72.9,0-109.4,0c0-149.2,0-298.4,0-447.8
		c82.7,0,165.4,0,248,0c-5,1.3-7.8,4.7-9.4,9.3c0,0.1-0.1,0.1-0.1,0.2c-11.9,28.1-23.7,56.2-35.6,84.3c-5.3,12.6-10.7,25.3-16,38
		c-0.4,1-1,2-0.7,3.3c38.3-39.1,76.5-78.3,115-117.6c-1.2-0.5-2-0.8-2.8-1.1c-7.8-2.7-15.5-5.5-23.3-8.2c-7.7-2.7-15.5-5.4-23.2-8.1
		c111.3,0,222.5,0,334,0c0,96.7,0,193.4,0,290.1c-7.3,0-14.6,0.1-21.9,0.1c-0.5,3.6-0.4,120.8,0.2,122.7
		C971.4,412.8,978.6,412.8,985.9,412.8z M564.7,176.3c3.8,4.1,7.4,8.1,11.2,11.9c34.8,34.8,69.6,69.5,104.4,104.2
		c2.2,2.2,4.6,4.2,7.2,5.9c5,3.4,10.6,4.5,16.7,3.8c5-0.6,9.3-2.8,13-6.1c2.3-2,4.4-4.2,6.5-6.4c43.9-43.9,87.9-87.8,131.8-131.7
		c0.6-0.6,1.2-1.2,1.8-1.8c-0.5,0-0.9,0.3-1.3,0.5c-3.7,2.3-7.2,4.7-11,6.8c-11.5,6.3-23.8,10.8-36.3,14.9
		c-14.8,4.8-29.9,8.6-45.3,11.1c-11.4,1.9-22.9,3.6-34.4,5.1c-8.6,1.1-17.3,1.7-26,2.6c-0.7,0.1-1.3,0.3-2.1,0.5c0,3,0,5.8,0,8.6
		c0,2.8,0,5.6,0,8.4c0,2.8,0,5.6,0,8.4c0,2.7,0.1,5.5-0.1,8.7c-31.9-18.4-63.5-36.6-95.3-55c31.8-18.3,63.2-36.4,95-54.8
		c0,5.5,0,10.5,0,15.5c0,5.1-0.2,10.2,0.2,15.6c1.3,0,2.4,0.1,3.5,0c5-0.3,10.1-0.6,15.1-1c11.6-1,23.3-1.8,34.9-3
		c12.6-1.3,25.2-3.1,37.7-5.6c9.5-1.9,19-3.8,28.1-6.9c7.2-2.5,14.2-5.4,21.2-8.3c5.1-2.1,9.2-5.4,12.5-9.7c1.2-1.6,2.2-3.4,2.7-5.3
		c1.5-5,0.7-9.6-3.2-13.4c-5.3-5.2-10.5-10.5-15.7-15.8c-3.4-3.4-4.4-3.5-7.8-0.1c-7.7,7.8-15.4,15.5-23.2,23.3
		c-2.3,2.3-4.5,4.6-6.9,6.6c-6.4,5.4-13.8,5.3-20.3,0.1c-1.5-1.3-2.9-2.7-4.4-4.1c-3.8-3.8-7.6-7.5-11.3-11.4
		c-3.8-4.1-5.2-8.9-3.6-14.4c0.8-2.8,2.5-5.1,4.6-7.2c9.3-9.3,18.7-18.6,28-27.9c4-4,4-5.9,0-9.8c-7.3-7.2-14.5-14.4-21.8-21.6
		c-2.9-2.8-5.8-5.8-9-8.3c-6.1-4.6-12.9-6.1-20.4-4.2c-5,1.3-9.2,4-12.8,7.6c-18,17.9-36,35.9-54,53.8c-32,32-64,64-96,96
		C574,166.9,569.5,171.5,564.7,176.3z M914.1,393.6c-6.9,0-13.3,0.2-19.8-0.1c-3.5-0.1-6.9-1.3-9.7-3.6c-1.6-1.3-1.6-1.3-1-3.2
		c1.5-4.4,2.1-9,2-13.7c-0.2-12.6-6-21.8-17-27.7c-6.6-3.5-13.8-5.1-21.2-5.3c-10.3-0.2-20.6-0.1-30.9-0.1c-0.8,0-1.7,0-2.5,0
		c-0.1-0.2-0.2-0.4-0.2-0.6c32.8-33.1,65.7-66.1,98.9-99.5c-1.3-0.1-2-0.1-2.8-0.1c-8.7,0-17.4,0.1-26.1-0.1c-2,0-3.2,0.6-4.5,2
		c-15.1,16.8-30.3,33.6-45.5,50.3c-13.8,15.3-27.7,30.6-41.6,45.8c-1.3,1.4-1.6,2.4-0.8,4.2c2.4,4.9,4.5,9.9,6.7,14.8
		c0.3,0.7,0.7,1.4,1.1,2.2c3,0,6,0,8.9,0c11.2,0,22.4,0,33.6,0.1c4.8,0.1,9.5,1.3,13.8,3.6c9.4,5.1,9.6,16.7,5.1,22.8
		c-4,5.4-9.3,8.2-16,8.2c-21,0-41.9,0-62.9,0c-2.8,0-5.6-0.2-8.4-0.5c-4.2-0.4-7.8-2.1-10.9-5c-0.8-0.8-1.1-1.5-0.9-2.7
		c0.4-2.1,0.7-4.3,0.7-6.4c0.1-16.7,0-33.4,0-50.1c0-0.7-0.1-1.4-0.2-2.1c-7.4,0-14.6,0-22.2,0c0,1.1,0,2,0,3c0,14.5,0,29.1,0,43.6
		c0,1.8,0,3.7-0.2,5.5c-1,10.3-7.8,15.5-16.4,14.8c-9.9-0.7-15.7-6.8-15.7-16.6c0-0.2,0-0.5,0-0.7c0-13.3,0-26.7,0-40
		c0-0.9-0.1-1.8-0.1-2.8c-7.4,0-14.6,0-22.1,0c0,1.1,0,2,0,2.9c0,12.3,0,24.6,0,36.9c0,2.7-0.2,5.5-0.8,8.1
		c-1.6,6.8-7.8,12.7-15.7,12.2c-2.4-0.1-4.8,0-7.2,0c-0.6,0-1.2-0.1-2-0.2c0-5.1,0-10,0-15c0-5,0-10.1,0-15.1c0-5,0-9.9,0-14.9
		c0-5,0.2-10-0.1-14.9c-4-0.5-20.3-0.3-22.2,0.3c0,19.8,0,39.6,0,59.8c-1,0-1.8,0-2.6,0c-4.3,0-8.6,0.1-13,0
		c-3.4-0.1-6.7-0.2-10-0.5c-3.9-0.3-7.4-1.7-10.5-4.2c-1.3-1.1-2-2.3-1.6-4.1c0.3-1.7,0.4-3.5,0.5-5.2c0-15.2,0-30.4,0-45.5
		c0-0.7-0.1-1.4-0.2-2.1c-7.4,0-14.7,0-22.2,0c0,1.1,0,2,0,2.9c0,13.3,0,26.5,0,39.8c0,1.2,0,2.4-0.1,3.6c-0.4,4.3-2,8-5.1,11.1
		c-2.5,2.5-5.5,4.2-9.1,4.3c-6.2,0.1-12.3,0.2-18.5,0c-4.2-0.2-8.2-1.4-11.4-4.3c-1-0.9-1.4-1.8-1.1-3.1c0.3-2,0.6-4.1,0.6-6.2
		c0.1-14.8,0.1-29.6,0.1-44.3c0-0.6-0.1-1.2-0.2-2c-7.3,0-14.6,0-22.1,0c0,1.1,0,2,0,2.9c0,12.5,0,25.1,0,37.6
		c0,3.7-0.3,7.4-2.1,10.7c-2.6,5-6.5,8.3-12.3,8.8c-3.1,0.3-6.2,0.2-9.3,0c-5.5-0.3-9.1-3.4-10.2-8.8c-0.4-2.2-0.6-4.4-0.6-6.7
		c0-13.4,0.1-26.8,0.1-40.3c0-0.9,0-1.9,0-2.8c-0.9-0.2-1.4-0.3-2-0.4c-7.5-0.9-14.9-1.8-22.4-2.6c-6.1-0.6-12.1-0.6-18.1,0.7
		c-13.7,2.9-23.9,10.3-29.7,23.3c-3.4,7.7-3.9,15.7-2.7,24c2.2,15.7,12.7,27.6,28,31.5c4.6,1.2,9.3,1.5,13.9,1.1
		c3.6-6.9,8-17.2,8.1-19c-3.2,0-6.4,0.1-9.6,0c-8.3-0.3-14.5-5-16.7-12.7c-1.9-6.5-1.6-13,0.7-19.3c1.8-5.1,5.5-8.3,10.7-9.8
		c5.7-1.6,11.4-1,17.3,0.3c0,1,0,1.8,0,2.7c0,8.8-0.1,17.6,0,26.4c0.1,3.4,0.3,6.9,1,10.2c2.6,13.3,12.1,21.2,25.6,21.4
		c7.8,0.1,15.5,0.1,23.3,0c7.7-0.2,14.3-3,19.7-8.5c0.5-0.5,1-1,1.5-1.5c0.7,0.6,1.3,1.2,1.9,1.7c5.7,5,12.3,8.1,20,8.3
		c7.8,0.2,15.7,0.2,23.5,0c8.6-0.2,15.8-3.6,21.5-10.1c0.5-0.6,1-1.2,1.7-1.9c0.7,0.8,1.3,1.4,1.9,2c4.1,4.6,9.1,7.8,15.2,8.9
		c3.1,0.5,6.2,1,9.3,1c19.3,0.1,38.5,0.1,57.8,0c8.1,0,15.1-3.1,20.7-9c0.5-0.5,1-0.9,1.8-1.7c0.6,0.8,1.1,1.5,1.6,2
		c4.1,4.1,9,6.5,14.6,7.7c4.5,0.9,9,1.2,13.6,1c9.4-0.4,17.4-3.9,23.7-10.9c0.4-0.5,0.8-1,1.2-1.6c0.9,0.9,1.4,1.5,2,2.2
		c4.1,4.7,9.1,8.1,15.3,9.3c3.5,0.6,7.1,1.1,10.7,1.1c21.8,0.1,43.7,0.1,65.5,0c9.2,0,17.2-3.2,24-9.3c0.6-0.5,1.2-1,1.8-1.6
		c0.7,0.6,1.2,1.2,1.8,1.7c6.5,6,14.1,9.2,23,9.2c11.4,0,22.9,0,34.3,0c0.9,0,1.7,0,2.7,0c0-41,0-81.7,0-122.6c-7.4,0-14.6,0-22.1,0
		C914.1,324.7,914.1,359,914.1,393.6z M563.3,150.8c0.2,0,0.4,0.1,0.6,0.1c4.7-11.9,9.3-24,14-35.9c4.7-12,9.4-24.1,14-36.2
		c4.7-12.1,9.4-24.2,14.1-36.4c4.6-12,9.4-24,14-36.1c-1.2,0-2-0.1-2.8,0c-4.4,0.4-8.7,0.8-13.1,1.2c-11.2,1-22.4,2-33.7,3
		c-6,0.6-10.1,4.4-10.7,10.1c-0.2,1.5-0.1,3-0.1,4.5c0.6,20.3,1.2,40.5,1.8,60.8c0.6,21,1,42,1.6,63
		C563.2,149.6,563.3,150.2,563.3,150.8z M777.6,86.5c0,7.4,5.9,13.4,13.3,13.5c7.3,0.1,13.5-6,13.5-13.4c0-7.4-6-13.4-13.4-13.4
		C783.6,73.2,777.6,79.1,777.6,86.5z M417.5,299.8c-0.4,4.7-0.3,18,0.2,19.8c7.5,0,14.9,0,22.4,0c0-6.7,0-13.1,0-19.8
		C432.5,299.8,425.1,299.8,417.5,299.8z M472.2,319.6c0-6.7,0-13.2,0-19.6c-2.7-0.6-21-0.4-22.7,0.1c-0.5,5.2-0.2,17.8,0.3,19.5
		C457.3,319.6,464.7,319.6,472.2,319.6z"/>
	<path d="M651.9,0c7.7,2.7,15.5,5.4,23.2,8.1c7.8,2.7,15.5,5.5,23.3,8.2c0.8,0.3,1.6,0.6,2.8,1.1c-38.4,39.3-76.7,78.5-115,117.6
		c-0.2-1.3,0.3-2.3,0.7-3.3c5.3-12.7,10.7-25.3,16-38c11.9-28.1,23.7-56.2,35.6-84.3c0-0.1,0.1-0.1,0.1-0.2c1.7-4.6,4.4-8.1,9.4-9.3
		C649.4,0,650.6,0,651.9,0z"/>
	<path d="M985.9,412.8c-7.3,0-14.5,0-21.7,0c-0.6-1.9-0.7-119.1-0.2-122.7c7.3,0,14.6-0.1,21.9-0.1
		C985.9,331,985.9,371.9,985.9,412.8z"/>
	<path d="M509.4,447.8c0-6.8,0-13.5,0-20.5c7.7,0,15.1,0,22.9,0c0,6.8,0.1,13.6,0.1,20.5C524.8,447.8,517.1,447.8,509.4,447.8z"/>
	<path d="M556,447.8c0-6.8,0-13.5,0-20.5c7.7,0,15.1,0,22.9,0c0,6.8,0.1,13.6,0.1,20.5C571.3,447.8,563.6,447.8,556,447.8z"/>
	<path d="M588.1,447.8c0-6.8,0-13.5,0-20.5c7.7,0,15.1,0,22.9,0c0.1,6.8,0.1,13.6,0.2,20.5C603.5,447.8,595.8,447.8,588.1,447.8z"/>
	<path d="M564.7,176.3c4.8-4.8,9.3-9.4,13.9-14c32-32,64-64,96-96c18-18,36-35.9,54-53.8c3.6-3.6,7.8-6.4,12.8-7.6
		c7.5-1.9,14.3-0.4,20.4,4.2c3.2,2.4,6.1,5.4,9,8.3c7.3,7.2,14.5,14.4,21.8,21.6c3.9,3.9,4,5.8,0,9.8c-9.4,9.3-18.7,18.6-28,27.9
		c-2.1,2.1-3.8,4.4-4.6,7.2c-1.6,5.5-0.2,10.3,3.6,14.4c3.6,3.9,7.5,7.6,11.3,11.4c1.4,1.4,2.8,2.8,4.4,4.1
		c6.5,5.3,13.9,5.3,20.3-0.1c2.4-2,4.7-4.4,6.9-6.6c7.7-7.7,15.5-15.5,23.2-23.3c3.4-3.4,4.4-3.4,7.8,0.1
		c5.2,5.3,10.4,10.6,15.7,15.8c3.9,3.9,4.7,8.4,3.2,13.4c-0.6,1.9-1.5,3.7-2.7,5.3c-3.3,4.3-7.5,7.7-12.5,9.7
		c-7,2.9-14,5.8-21.2,8.3c-9.1,3.2-18.6,5-28.1,6.9c-12.5,2.5-25,4.3-37.7,5.6c-11.6,1.2-23.2,2.1-34.9,3c-5,0.4-10,0.7-15.1,1
		c-1.1,0.1-2.2,0-3.5,0c-0.3-5.4-0.1-10.5-0.2-15.6c0-5,0-10,0-15.5c-31.9,18.4-63.2,36.5-95,54.8c31.9,18.4,63.4,36.6,95.3,55
		c0.2-3.2,0.1-6,0.1-8.7c0-2.8,0-5.6,0-8.4c0-2.8,0-5.6,0-8.4c0-2.8,0-5.6,0-8.6c0.8-0.2,1.4-0.4,2.1-0.5c8.7-0.9,17.4-1.5,26-2.6
		c11.5-1.5,22.9-3.2,34.4-5.1c15.4-2.6,30.5-6.3,45.3-11.1c12.5-4.1,24.8-8.6,36.3-14.9c3.8-2.1,7.4-4.5,11-6.8
		c0.4-0.2,0.7-0.5,1.3-0.5c-0.6,0.6-1.2,1.2-1.8,1.8c-43.9,43.9-87.9,87.8-131.8,131.7c-2.1,2.1-4.2,4.4-6.5,6.4
		c-3.7,3.3-8,5.5-13,6.1c-6,0.7-11.7-0.4-16.7-3.8c-2.6-1.7-5-3.8-7.2-5.9c-34.8-34.7-69.6-69.4-104.4-104.2
		C572.1,184.4,568.6,180.4,564.7,176.3z"/>
	<path d="M914.1,393.6c0-34.5,0-68.9,0-103.3c7.5,0,14.7,0,22.1,0c0,40.8,0,81.5,0,122.6c-1,0-1.8,0-2.7,0c-11.4,0-22.9,0-34.3,0
		c-8.9,0-16.5-3.2-23-9.2c-0.6-0.5-1.2-1.1-1.8-1.7c-0.7,0.6-1.3,1.1-1.8,1.6c-6.9,6.1-14.9,9.2-24,9.3c-21.8,0-43.7,0.1-65.5,0
		c-3.6,0-7.2-0.5-10.7-1.1c-6.2-1.1-11.1-4.6-15.3-9.3c-0.6-0.6-1.2-1.3-2-2.2c-0.5,0.7-0.8,1.2-1.2,1.6c-6.3,7-14.3,10.5-23.7,10.9
		c-4.6,0.2-9.1,0-13.6-1c-5.6-1.2-10.5-3.6-14.6-7.7c-0.6-0.6-1-1.2-1.6-2c-0.8,0.7-1.3,1.2-1.8,1.7c-5.6,5.9-12.6,9-20.7,9
		c-19.3,0.1-38.5,0.1-57.8,0c-3.1,0-6.2-0.5-9.3-1c-6.1-1.1-11.1-4.3-15.2-8.9c-0.6-0.6-1.2-1.3-1.9-2c-0.6,0.7-1.1,1.3-1.7,1.9
		c-5.7,6.4-12.9,9.9-21.5,10.1c-7.8,0.2-15.7,0.2-23.5,0c-7.6-0.2-14.2-3.3-20-8.3c-0.6-0.5-1.2-1.1-1.9-1.7c-0.5,0.5-1.1,1-1.5,1.5
		c-5.4,5.5-12,8.4-19.7,8.5c-7.8,0.2-15.5,0.1-23.3,0c-13.5-0.2-23-8.1-25.6-21.4c-0.6-3.3-0.9-6.8-1-10.2c-0.1-8.8,0-17.6,0-26.4
		c0-0.9,0-1.7,0-2.7c-5.9-1.2-11.6-1.9-17.3-0.3c-5.2,1.5-8.8,4.7-10.7,9.8c-2.3,6.3-2.6,12.8-0.7,19.3c2.2,7.7,8.4,12.4,16.7,12.7
		c3.2,0.1,6.4,0,9.6,0c-0.2,1.8-4.6,12.1-8.1,19c-4.6,0.4-9.3,0.1-13.9-1.1c-15.3-3.9-25.8-15.8-28-31.5c-1.1-8.2-0.6-16.3,2.7-24
		c5.7-13,16-20.4,29.7-23.3c6-1.2,12.1-1.3,18.1-0.7c7.5,0.8,14.9,1.7,22.4,2.6c0.5,0.1,1.1,0.2,2,0.4c0,1,0,1.9,0,2.8
		c0,13.4-0.1,26.8-0.1,40.3c0,2.2,0.2,4.5,0.6,6.7c1.1,5.4,4.7,8.5,10.2,8.8c3.1,0.2,6.3,0.2,9.3,0c5.8-0.5,9.7-3.8,12.3-8.8
		c1.8-3.4,2.1-7,2.1-10.7c0-12.5,0-25.1,0-37.6c0-0.9,0-1.9,0-2.9c7.5,0,14.8,0,22.1,0c0.1,0.8,0.2,1.4,0.2,2
		c0,14.8,0,29.6-0.1,44.3c0,2.1-0.2,4.1-0.6,6.2c-0.2,1.4,0.1,2.3,1.1,3.1c3.3,2.9,7.2,4.2,11.4,4.3c6.1,0.2,12.3,0.2,18.5,0
		c3.6-0.1,6.6-1.8,9.1-4.3c3.1-3.1,4.7-6.8,5.1-11.1c0.1-1.2,0.1-2.4,0.1-3.6c0-13.3,0-26.5,0-39.8c0-0.9,0-1.9,0-2.9
		c7.5,0,14.8,0,22.2,0c0.1,0.7,0.2,1.4,0.2,2.1c0,15.2,0,30.4,0,45.5c0,1.7-0.1,3.5-0.5,5.2c-0.4,1.8,0.3,3,1.6,4.1
		c3.1,2.6,6.6,3.9,10.5,4.2c3.3,0.3,6.7,0.4,10,0.5c4.3,0.1,8.6,0,13,0c0.8,0,1.6,0,2.6,0c0-20.1,0-40,0-59.8
		c1.9-0.6,18.2-0.8,22.2-0.3c0.3,4.9,0.1,9.9,0.1,14.9c0,5,0,9.9,0,14.9c0,5,0,10.1,0,15.1c0,4.9,0,9.9,0,15c0.8,0.1,1.4,0.2,2,0.2
		c2.4,0,4.8-0.1,7.2,0c7.9,0.4,14.1-5.5,15.7-12.2c0.6-2.6,0.8-5.4,0.8-8.1c0.1-12.3,0-24.6,0-36.9c0-0.9,0-1.9,0-2.9
		c7.5,0,14.6,0,22.1,0c0,1,0.1,1.9,0.1,2.8c0,13.3,0,26.7,0,40c0,0.2,0,0.5,0,0.7c0,9.8,5.8,15.9,15.7,16.6
		c8.7,0.6,15.5-4.5,16.4-14.8c0.2-1.8,0.2-3.7,0.2-5.5c0-14.5,0-29.1,0-43.6c0-0.9,0-1.9,0-3c7.5,0,14.7,0,22.2,0
		c0.1,0.7,0.2,1.4,0.2,2.1c0,16.7,0,33.4,0,50.1c0,2.1-0.3,4.3-0.7,6.4c-0.2,1.2,0.1,1.9,0.9,2.7c3.1,2.9,6.7,4.6,10.9,5
		c2.8,0.3,5.6,0.5,8.4,0.5c21,0,41.9,0.1,62.9,0c6.7,0,12-2.8,16-8.2c4.5-6.1,4.3-17.7-5.1-22.8c-4.3-2.3-8.9-3.5-13.8-3.6
		c-11.2-0.1-22.4-0.1-33.6-0.1c-3,0-5.9,0-8.9,0c-0.4-0.8-0.8-1.5-1.1-2.2c-2.2-4.9-4.4-9.9-6.7-14.8c-0.9-1.8-0.5-2.8,0.8-4.2
		c13.9-15.2,27.7-30.5,41.6-45.8c15.2-16.8,30.4-33.5,45.5-50.3c1.3-1.4,2.5-2.1,4.5-2c8.7,0.1,17.4,0,26.1,0.1
		c0.8,0,1.5,0.1,2.8,0.1c-33.2,33.4-66,66.4-98.9,99.5c0.1,0.2,0.2,0.4,0.2,0.6c0.8,0,1.7,0,2.5,0c10.3,0,20.6-0.1,30.9,0.1
		c7.4,0.2,14.6,1.8,21.2,5.3c11,5.9,16.8,15.1,17,27.7c0.1,4.7-0.5,9.2-2,13.7c-0.6,1.9-0.6,1.9,1,3.2c2.8,2.3,6.2,3.5,9.7,3.6
		C900.7,393.8,907.2,393.6,914.1,393.6z"/>
	<path d="M563.3,150.8c-0.1-0.6-0.2-1.2-0.2-1.8c-0.5-21-1-42-1.6-63c-0.5-20.3-1.2-40.5-1.8-60.8c0-1.5-0.1-3,0.1-4.5
		c0.6-5.7,4.7-9.6,10.7-10.1c11.2-1,22.4-2,33.7-3c4.4-0.4,8.7-0.8,13.1-1.2c0.8-0.1,1.6,0,2.8,0c-4.6,12.2-9.3,24.1-14,36.1
		c-4.7,12.1-9.4,24.2-14.1,36.4c-4.7,12.1-9.3,24.1-14,36.2c-4.7,12-9.3,24-14,35.9C563.8,150.9,563.6,150.9,563.3,150.8z"/>
	<path d="M777.6,86.5c0-7.4,6-13.3,13.4-13.3c7.4,0,13.4,6,13.4,13.4c0,7.3-6.2,13.4-13.5,13.4C783.5,99.9,777.5,93.9,777.6,86.5z"
		/>
	<path d="M417.5,299.8c7.6,0,15,0,22.6,0c0,6.6,0,13.1,0,19.8c-7.5,0-15,0-22.4,0C417.2,317.8,417,304.5,417.5,299.8z"/>
	<path d="M472.2,319.6c-7.6,0-15,0-22.4,0c-0.6-1.7-0.8-14.3-0.3-19.5c1.7-0.6,20-0.7,22.7-0.1C472.2,306.4,472.2,312.8,472.2,319.6
		z"/>
</g>
<path class="st1" d="M92.7,29c0.7-0.7,1.3-1.3,2-2c4.5-4.5,9-9.1,13.6-13.6c2.5-2.5,5.1-5.1,7.6-7.6c0.5-0.5,1.1-0.9,1.8-1.1
	c1.1-0.3,2-0.1,2.9,0.6c0.5,0.3,0.9,0.8,1.3,1.2c1,1,2.1,2,3.1,3.1c0.6,0.5,0.6,0.8,0,1.4c-1.3,1.3-2.6,2.6-4,4
	c-0.3,0.3-0.5,0.6-0.7,1c-0.2,0.8,0,1.5,0.5,2c0.5,0.6,1.1,1.1,1.6,1.6c0.2,0.2,0.4,0.4,0.6,0.6c0.9,0.7,2,0.8,2.9,0
	c0.3-0.3,0.7-0.6,1-0.9c1.1-1.1,2.2-2.2,3.3-3.3c0.5-0.5,0.6-0.5,1.1,0c0.7,0.7,1.5,1.5,2.2,2.2c0.6,0.5,0.7,1.2,0.5,1.9
	c-0.1,0.3-0.2,0.5-0.4,0.7c-0.5,0.6-1.1,1.1-1.8,1.4c-1,0.4-2,0.8-3,1.2c-1.3,0.4-2.6,0.7-4,1c-1.8,0.4-3.5,0.6-5.3,0.8
	c-1.6,0.2-3.3,0.3-4.9,0.4c-0.7,0.1-1.4,0.1-2.1,0.1c-0.2,0-0.3,0-0.5,0c0-0.8,0-1.5,0-2.2c0-0.7,0-1.4,0-2.2
	c-4.5,2.6-8.9,5.2-13.4,7.8c4.5,2.6,9,5.2,13.5,7.8c0-0.5,0-0.8,0-1.2c0-0.4,0-0.8,0-1.2s0-0.8,0-1.2c0-0.4,0-0.8,0-1.2
	c0.1,0,0.2-0.1,0.3-0.1c1.2-0.1,2.5-0.2,3.7-0.4c1.6-0.2,3.2-0.5,4.9-0.7c2.2-0.4,4.3-0.9,6.4-1.6c1.8-0.6,3.5-1.2,5.1-2.1
	c0.5-0.3,1-0.6,1.6-1c0.1,0,0.1-0.1,0.2-0.1c-0.1,0.1-0.2,0.2-0.2,0.3c-6.2,6.2-12.4,12.4-18.6,18.6c-0.3,0.3-0.6,0.6-0.9,0.9
	c-0.5,0.5-1.1,0.8-1.8,0.9c-0.9,0.1-1.6-0.1-2.4-0.5c-0.4-0.2-0.7-0.5-1-0.8c-4.9-4.9-9.8-9.8-14.8-14.7
	C93.7,30.2,93.2,29.6,92.7,29z"/>
</svg>
