<svg width="135" height="51" viewBox="0 0 135 51" fill="none" xmlns="http://www.w3.org/2000/svg">
<path d="M14.8057 29.316V32H7.03967C5.58767 32 4.44367 31.846 3.60767 31.538C2.77167 31.23 2.14834 30.6727 1.73767 29.866C1.34167 29.0447 1.14367 27.8567 1.14367 26.302C1.14367 24.8207 1.33434 23.6913 1.71567 22.914C2.09701 22.122 2.71301 21.572 3.56367 21.264C4.41434 20.9413 5.60967 20.78 7.14967 20.78C7.97101 20.78 8.95367 20.8093 10.0977 20.868C11.2417 20.9267 12.0483 20.9927 12.5177 21.066V29.316H14.8057ZM4.09167 26.302C4.09167 27.1233 4.19434 27.754 4.39967 28.194C4.61967 28.6193 4.94967 28.9127 5.38967 29.074C5.82967 29.2353 6.43101 29.316 7.19367 29.316H9.56967V23.574C8.83634 23.5007 8.06634 23.464 7.25967 23.464C6.45301 23.464 5.82234 23.5447 5.36767 23.706C4.92767 23.8673 4.60501 24.1533 4.39967 24.564C4.19434 24.96 4.09167 25.5393 4.09167 26.302ZM4.59767 16.204H6.86367V18.954H4.59767V16.204ZM7.94167 16.204H10.2077V18.954H7.94167V16.204ZM24.3346 29.316V32H14.8086V29.316H18.0866V21H21.0346V29.316H24.3346ZM18.1746 33.76H20.8806V36.62H18.1746V33.76ZM33.8522 29.316V32H24.3262V29.316H27.6042V21H30.5522V29.316H33.8522ZM26.2402 33.76H28.5062V36.51H26.2402V33.76ZM29.5842 33.76H31.8502V36.51H29.5842V33.76ZM53.2478 29.316V32H46.8678C46.3838 32 45.9144 31.9193 45.4597 31.758C45.0198 31.5967 44.6604 31.406 44.3818 31.186C43.7951 31.7287 43.0618 32 42.1818 32H33.8438V29.316H37.2098V22.1H40.1578V29.316H41.1698C41.7271 29.316 42.1524 29.096 42.4458 28.656C42.7538 28.2013 42.9078 27.622 42.9078 26.918V22.1H45.8558V26.918C45.8558 27.666 45.7824 28.3333 45.6358 28.92C45.7678 29.0227 45.9364 29.118 46.1418 29.206C46.3618 29.2793 46.5818 29.316 46.8018 29.316H48.4518V26.302C48.4518 25.3633 48.4371 24.5713 48.4078 23.926C48.3784 23.266 48.3124 22.32 48.2098 21.088L50.7838 20.978C50.9451 21.9167 51.0844 22.87 51.2018 23.838C51.3338 24.806 51.3998 25.488 51.3998 25.884V29.316H53.2478ZM68.9081 29.316V32H53.2441V29.316H63.0341V26.61C63.0341 25.8473 62.8508 25.224 62.4841 24.74C62.1321 24.256 61.7068 24.014 61.2081 24.014H55.3121L53.7941 21.968L55.1141 19.394C55.4075 18.8073 55.8035 18.184 56.3021 17.524C56.8008 16.8493 57.2701 16.27 57.7101 15.786L59.8881 17.018C59.1255 18.1033 58.4068 19.284 57.7321 20.56L57.3361 21.33H61.6921C62.8655 21.33 63.7675 21.6453 64.3981 22.276C65.0288 22.9067 65.4468 23.618 65.6521 24.41C65.8721 25.202 65.9821 25.9427 65.9821 26.632V29.316H68.9081ZM74.5602 16.6V32H68.9062V29.316H71.6123V16.6H74.5602ZM78.0784 16.6H81.0264V32H78.0784V16.6Z" fill="#FB1B1C"/>
<path d="M135 23.0014C135 19.1735 134.045 15.406 132.221 12.0406C130.397 8.67514 127.762 5.81817 124.555 3.72869C121.347 1.63921 117.669 0.383295 113.854 0.0748117C110.038 -0.233672 106.206 0.415033 102.704 1.96211C99.2031 3.50918 96.1432 5.9057 93.8022 8.9344C91.4613 11.9631 89.9132 15.5282 89.2985 19.3064C88.6838 23.0847 89.0218 26.9566 90.2819 30.5712C91.542 34.1858 93.6843 37.4288 96.5147 40.006V32.3005C96.5143 31.7873 96.6173 31.2794 96.8176 30.8069C96.7662 30.9366 96.74 31.0749 96.7404 31.2144C96.7401 31.4401 96.8088 31.6605 96.9373 31.8461V31.4719C96.9352 30.9586 97.0383 30.4503 97.2403 29.9784C97.1882 30.1079 97.1614 30.2462 97.1615 30.3858C97.1615 30.3858 97.1615 30.3858 97.1615 30.398C97.4533 29.7608 97.9147 29.2161 98.4952 28.8234C99.0757 28.4307 99.753 28.2051 100.453 28.1713C101.342 22.5536 102.71 17.0222 104.541 11.6378C108.862 13.1081 113.183 14.5774 117.503 16.0457C116.252 19.7258 115.252 23.4865 114.51 27.3018C114.358 28.0592 114.224 28.8166 114.098 29.5891C113.99 30.2222 113.893 30.86 113.795 31.4962H114.892C114.981 30.86 115.076 30.2222 115.182 29.5891C115.306 28.8347 115.44 28.0829 115.585 27.3336C116.332 23.4535 117.344 19.6293 118.615 15.8881L108.401 12.4179C108.681 11.8316 108.984 11.2545 109.287 10.6835C113.326 12.8041 117.37 14.9212 121.417 17.0348C119.664 20.3788 118.136 23.8355 116.841 27.3821C116.568 28.1152 116.311 28.8529 116.063 29.5967C115.851 30.2298 115.649 30.8655 115.457 31.5037H116.576C116.773 30.8665 116.975 30.2308 117.182 29.5967C117.424 28.8655 117.68 28.1379 117.948 27.4139C119.244 23.8604 120.774 20.3966 122.528 17.0454L112.969 12.0392C113.347 11.509 113.727 10.9788 114.118 10.4578L125.125 18.6026C123.031 21.4316 121.112 24.3864 119.38 27.4502C118.976 28.1571 118.587 28.8706 118.212 29.5906C117.876 30.2207 117.553 30.8584 117.238 31.4977H118.432C118.751 30.8584 119.077 30.2207 119.413 29.5906C119.787 28.8847 120.171 28.1834 120.572 27.4881C122.278 24.4768 124.165 21.5722 126.224 18.7904C123.333 16.6506 120.443 14.5112 117.552 12.3724C118.006 11.9059 118.465 11.4434 118.93 10.9849L124.662 16.7909C122.877 14.9833 121.094 13.1757 119.312 11.3681C119.404 11.2757 119.495 11.1833 119.59 11.0924C122.794 14.3401 126 17.5862 129.209 20.8308C126.829 23.1826 124.588 25.6716 122.499 28.2849C122.774 28.3911 123.011 28.5782 123.178 28.8214C123.346 29.0647 123.436 29.3529 123.436 29.6482V42.9477C126.949 40.9356 129.869 38.0314 131.899 34.529C133.93 31.0265 135 27.0499 135 23.0014Z" fill="#FB1B1C"/>
<path d="M126.824 18.9767C126.843 18.948 126.866 18.9237 126.884 18.8949C126.708 18.7632 126.53 18.6329 126.353 18.5011C127.086 19.2433 127.818 19.9845 128.549 20.7248C126.586 22.6636 124.723 24.6909 122.959 26.8065C124.723 24.6949 126.586 22.6677 128.55 20.7248C127.972 20.1416 127.398 19.5614 126.824 18.9767Z" fill="#FB1B1C"/>
<path d="M104.453 29.0771C104.77 26.1218 106.824 23.9179 109.046 24.1572C110.155 24.2738 111.093 24.9797 111.718 26.0218C111.132 24.5995 110.038 23.5982 108.689 23.4468C106.47 23.2074 104.413 25.4159 104.096 28.3667C103.974 29.4236 104.108 30.4944 104.487 31.4886H104.609C104.415 30.7004 104.362 29.8838 104.453 29.0771Z" fill="#FB1B1C"/>
<path d="M114.905 15.8109L105.144 12.6799L102.122 24.0042L105.573 13.4964L114.905 15.8109Z" fill="#FB1B1C"/>
<path d="M126.884 18.8949C126.866 18.9237 126.843 18.9479 126.823 18.9767C127.397 19.5614 127.971 20.1416 128.55 20.7247C126.587 22.6636 124.723 24.6909 122.959 26.8065C122.579 27.2609 122.205 27.7188 121.835 28.1803H121.967C122.149 28.1809 122.329 28.2158 122.499 28.2833C124.588 25.6711 126.829 23.1831 129.209 20.8323C126.003 17.5877 122.796 14.3416 119.59 11.0939C119.495 11.1848 119.404 11.2772 119.312 11.3696C121.095 13.1782 122.878 14.9858 124.662 16.7924L126.352 18.5041C126.529 18.6329 126.707 18.7631 126.884 18.8949Z" fill="#FB1B1C"/>
<path d="M126.884 18.8949C126.866 18.9237 126.843 18.9479 126.823 18.9767C127.397 19.5614 127.971 20.1416 128.55 20.7247C126.587 22.6636 124.723 24.6909 122.959 26.8065C122.579 27.2609 122.205 27.7188 121.835 28.1803H121.967C122.149 28.1809 122.329 28.2158 122.499 28.2833C124.588 25.6711 126.829 23.1831 129.209 20.8323C126.003 17.5877 122.796 14.3416 119.59 11.0939C119.495 11.1848 119.404 11.2772 119.312 11.3696C121.095 13.1782 122.878 14.9858 124.662 16.7924L126.352 18.5041C126.529 18.6329 126.707 18.7631 126.884 18.8949Z" fill="#FB1B1C"/>
<path d="M121.835 28.1804C122.205 27.7189 122.579 27.2609 122.959 26.8065C122.18 27.7396 121.422 28.6883 120.687 29.6527C120.22 30.2586 119.768 30.8767 119.324 31.4962H120.042C120.466 30.9135 120.896 30.3349 121.332 29.7603C121.713 29.2634 122.1 28.7712 122.493 28.2834C122.323 28.2159 122.143 28.1809 121.961 28.1804H121.835Z" fill="#FB1B1C"/>
<path d="M126.352 18.5011L124.662 16.7894L126.348 18.4981L126.352 18.5011Z" fill="#FB1B1C"/>
<path d="M120.911 49.5596C120.911 49.7476 120.874 49.9337 120.804 50.1079C121.091 50.0088 121.34 49.823 121.518 49.5761C121.695 49.3292 121.791 49.0334 121.793 48.7295V46.886H120.911V49.5596Z" fill="#FB1B1C"/>
<path d="M114.787 32.1929C114.817 31.9627 114.852 31.7385 114.884 31.5022H113.801C113.769 31.7249 113.736 31.9475 113.706 32.1702L114.787 32.1929Z" fill="#FB1B1C"/>
<path d="M114.787 32.1929C114.817 31.9627 114.852 31.7385 114.884 31.5022H113.801C113.769 31.7249 113.736 31.9475 113.706 32.1702L114.787 32.1929Z" fill="#FB1B1C"/>
<path d="M116.879 32.2248L118.056 32.2475C118.177 31.996 118.304 31.7461 118.43 31.4901H117.236C117.115 31.734 116.994 31.9748 116.877 32.2187L116.879 32.2248Z" fill="#FB1B1C"/>
<path d="M116.879 32.2248L118.056 32.2475C118.177 31.996 118.304 31.7461 118.43 31.4901H117.236C117.115 31.734 116.994 31.9748 116.877 32.2187L116.879 32.2248Z" fill="#FB1B1C"/>
<path d="M115.234 32.193L116.346 32.2127C116.417 31.9718 116.497 31.7325 116.567 31.4932H115.448C115.375 31.7264 115.296 31.9597 115.232 32.193H115.234Z" fill="#FB1B1C"/>
<path d="M115.234 32.193L116.346 32.2127C116.417 31.9718 116.497 31.7325 116.567 31.4932H115.448C115.375 31.7264 115.296 31.9597 115.232 32.193H115.234Z" fill="#FB1B1C"/>
<path d="M121.793 32.9655C121.789 32.572 121.629 32.1963 121.348 31.9207C121.067 31.6452 120.688 31.4925 120.295 31.4962H120.042C119.84 31.7718 119.641 32.0485 119.446 32.3262C119.834 32.3294 120.204 32.4854 120.477 32.7602C120.751 33.035 120.904 33.4066 120.905 33.794V37.8839H121.381V44.9169H120.905V46.886H121.787L121.793 32.9655Z" fill="#FB1B1C"/>
<path d="M97.1144 30.51C97.0628 30.6397 97.0366 30.778 97.0371 30.9175C97.0369 31.0632 97.0655 31.2076 97.1211 31.3423C97.1767 31.477 97.2584 31.5994 97.3613 31.7025C97.4643 31.8056 97.5866 31.8875 97.7212 31.9433C97.8559 31.9991 98.0002 32.0278 98.1459 32.0278H97.0977C97.3022 32.2219 97.5732 32.3303 97.8551 32.3308H118.733L118.769 32.255C118.948 32.0021 119.131 31.7521 119.312 31.4976H118.431C118.306 31.7476 118.179 31.9975 118.057 32.255L116.88 32.2323C116.997 31.9884 117.118 31.7476 117.239 31.5037H116.57C116.496 31.743 116.418 31.9824 116.349 32.2232L115.237 32.2035C115.305 31.9703 115.379 31.737 115.452 31.5037H114.892C114.86 31.734 114.825 31.9581 114.795 32.1944L113.715 32.1717C113.745 31.949 113.778 31.7264 113.81 31.5037H104.615C104.683 31.7713 104.769 32.034 104.873 32.2899C104.725 32.0387 104.598 31.7757 104.493 31.5037H98.2959C98.0011 31.5062 97.7172 31.3922 97.5059 31.1866C97.2946 30.981 97.173 30.7003 97.1674 30.4055C97.1568 30.4282 97.1447 30.451 97.1341 30.4752C97.126 30.4859 97.1194 30.4976 97.1144 30.51Z" fill="#FB1B1C"/>
<path d="M104.873 32.2823C104.769 32.0264 104.683 31.7638 104.615 31.4962H104.493C104.598 31.7682 104.725 32.0311 104.873 32.2823Z" fill="#FB1B1C"/>
<path d="M104.873 32.2823C104.769 32.0264 104.683 31.7638 104.615 31.4962H104.493C104.598 31.7682 104.725 32.0311 104.873 32.2823Z" fill="#FB1B1C"/>
<path d="M118.769 32.2505L118.733 32.3262H119.452C119.649 32.0485 119.848 31.7718 120.048 31.4962H119.312C119.133 31.7476 118.948 31.9975 118.769 32.2505Z" fill="#FB1B1C"/>
<path d="M118.769 32.2505L118.733 32.3262H119.452C119.649 32.0485 119.848 31.7718 120.048 31.4962H119.312C119.133 31.7476 118.948 31.9975 118.769 32.2505Z" fill="#FB1B1C"/>
<path d="M121.385 37.8914H120.911V44.9108H121.385V37.8914Z" fill="#FB1B1C"/>
<path d="M117.056 37.8914C116.125 37.8914 115.233 38.2612 114.574 38.9194C113.916 39.5776 113.546 40.4703 113.546 41.4011C113.546 41.8625 113.636 42.3195 113.812 42.7461C113.988 43.1726 114.246 43.5602 114.572 43.8867C114.898 44.2133 115.285 44.4723 115.712 44.6491C116.138 44.8259 116.595 44.9168 117.056 44.9168H121.387V37.8914H117.056Z" fill="#FB1B1C"/>
</svg>
