<svg width="32" height="25" viewBox="0 0 32 25" fill="none" xmlns="http://www.w3.org/2000/svg">
<g clip-path="url(#clip0_1596_9438)">
<path d="M7.27275 24.261V11.766L3.43837 8.22094L0 6.25366V22.0559C0 23.276 0.978125 24.261 2.18187 24.261H7.27275Z" fill="#4285F4"/>
<path d="M24.7273 24.261H29.8182C31.0255 24.261 32 23.2723 32 22.0559V6.25378L28.1055 8.50706L24.7273 11.766V24.261Z" fill="#34A853"/>
<path d="M7.27273 11.7661L6.75098 6.88392L7.27273 2.21124L16 8.82619L24.7272 2.21124L25.311 6.63165L24.7272 11.7661L16 18.381L7.27273 11.7661Z" fill="#EA4335"/>
<path d="M24.7273 2.21124V11.766L32 6.25367V3.31368C32 0.586934 28.92 -0.96751 26.7638 0.667782L24.7273 2.21124Z" fill="#FBBC04"/>
<path d="M0 6.25355L3.34488 8.78891L7.27275 11.7659V2.21111L5.23625 0.667657C3.07625 -0.967762 0 0.586808 0 3.31343V6.25342V6.25355Z" fill="#C5221F"/>
</g>
<defs>
<clipPath id="clip0_1596_9438">
<rect width="32" height="24.381" fill="white"/>
</clipPath>
</defs>
</svg>
