<svg width="32" height="32" viewBox="0 0 32 32" fill="none" xmlns="http://www.w3.org/2000/svg">
<g clip-path="url(#clip0_1596_9431)">
<path d="M32.0008 16.0984C32.0008 7.20641 24.8368 -0.00158691 16.0008 -0.00158691C7.16083 0.000413086 -0.00317383 7.20641 -0.00317383 16.1004C-0.00317383 24.1344 5.84883 30.7944 13.4968 32.0024V20.7524H9.43683V16.1004H13.5008V12.5504C13.5008 8.51641 15.8908 6.28841 19.5448 6.28841C21.2968 6.28841 23.1268 6.60241 23.1268 6.60241V10.5624H21.1088C19.1228 10.5624 18.5028 11.8044 18.5028 13.0784V16.0984H22.9388L22.2308 20.7504H18.5008V32.0004C26.1488 30.7924 32.0008 24.1324 32.0008 16.0984Z" fill="#699BF7"/>
</g>
<defs>
<clipPath id="clip0_1596_9431">
<rect width="32" height="32" fill="white"/>
</clipPath>
</defs>
</svg>
