<svg width="1313" height="1106" viewBox="0 0 1313 1106" fill="none" xmlns="http://www.w3.org/2000/svg">
<circle cx="1261.5" cy="3.5" r="3.5" fill="#FBB0B0"/>
<circle cx="1273.5" cy="3.5" r="3.5" fill="#FBB0B0"/>
<circle cx="1285.5" cy="3.5" r="3.5" fill="#FBB0B0"/>
<circle cx="1297.5" cy="3.5" r="3.5" fill="#FBB0B0"/>
<circle cx="1309.5" cy="3.5" r="3.5" fill="#FBB0B0"/>
<circle cx="1261.5" cy="15.5" r="3.5" fill="#FBB0B0"/>
<circle cx="1273.5" cy="15.5" r="3.5" fill="#FBB0B0"/>
<circle cx="1285.5" cy="15.5" r="3.5" fill="#FBB0B0"/>
<circle cx="1297.5" cy="15.5" r="3.5" fill="#FBB0B0"/>
<circle cx="1309.5" cy="15.5" r="3.5" fill="#FBB0B0"/>
<circle cx="1261.5" cy="27.5" r="3.5" fill="#FBB0B0"/>
<circle cx="1273.5" cy="27.5" r="3.5" fill="#FBB0B0"/>
<circle cx="1285.5" cy="27.5" r="3.5" fill="#FBB0B0"/>
<circle cx="1297.5" cy="27.5" r="3.5" fill="#FBB0B0"/>
<circle cx="1309.5" cy="27.5" r="3.5" fill="#FBB0B0"/>
<circle cx="1261.5" cy="39.5" r="3.5" fill="#FBB0B0"/>
<circle cx="1273.5" cy="39.5" r="3.5" fill="#FBB0B0"/>
<circle cx="1285.5" cy="39.5" r="3.5" fill="#FBB0B0"/>
<circle cx="1297.5" cy="39.5" r="3.5" fill="#FBB0B0"/>
<circle cx="1309.5" cy="39.5" r="3.5" fill="#FBB0B0"/>
<circle cx="1261.5" cy="51.5" r="3.5" fill="#FBB0B0"/>
<circle cx="1273.5" cy="51.5" r="3.5" fill="#FBB0B0"/>
<circle cx="1285.5" cy="51.5" r="3.5" fill="#FBB0B0"/>
<circle cx="1297.5" cy="51.5" r="3.5" fill="#FBB0B0"/>
<circle cx="1309.5" cy="51.5" r="3.5" fill="#FBB0B0"/>
<circle cx="1261.5" cy="63.5" r="3.5" fill="#FBB0B0"/>
<circle cx="1273.5" cy="63.5" r="3.5" fill="#FBB0B0"/>
<circle cx="1285.5" cy="63.5" r="3.5" fill="#FBB0B0"/>
<circle cx="1297.5" cy="63.5" r="3.5" fill="#FBB0B0"/>
<circle cx="1309.5" cy="63.5" r="3.5" fill="#FBB0B0"/>
<circle cx="1261.5" cy="75.5" r="3.5" fill="#FBB0B0"/>
<circle cx="1273.5" cy="75.5" r="3.5" fill="#FBB0B0"/>
<circle cx="1285.5" cy="75.5" r="3.5" fill="#FBB0B0"/>
<circle cx="1297.5" cy="75.5" r="3.5" fill="#FBB0B0"/>
<circle cx="1309.5" cy="75.5" r="3.5" fill="#FBB0B0"/>
<circle cx="1261.5" cy="87.5" r="3.5" fill="#FBB0B0"/>
<circle cx="1273.5" cy="87.5" r="3.5" fill="#FBB0B0"/>
<circle cx="1285.5" cy="87.5" r="3.5" fill="#FBB0B0"/>
<circle cx="1297.5" cy="87.5" r="3.5" fill="#FBB0B0"/>
<circle cx="1309.5" cy="87.5" r="3.5" fill="#FBB0B0"/>
<circle cx="1261.5" cy="99.5" r="3.5" fill="#FBB0B0"/>
<circle cx="1273.5" cy="99.5" r="3.5" fill="#FBB0B0"/>
<circle cx="1285.5" cy="99.5" r="3.5" fill="#FBB0B0"/>
<circle cx="1297.5" cy="99.5" r="3.5" fill="#FBB0B0"/>
<circle cx="1309.5" cy="99.5" r="3.5" fill="#FBB0B0"/>
<circle cx="1261.5" cy="111.5" r="3.5" fill="#FBB0B0"/>
<circle cx="1273.5" cy="111.5" r="3.5" fill="#FBB0B0"/>
<circle cx="1285.5" cy="111.5" r="3.5" fill="#FBB0B0"/>
<circle cx="1297.5" cy="111.5" r="3.5" fill="#FBB0B0"/>
<circle cx="1309.5" cy="111.5" r="3.5" fill="#FBB0B0"/>
<circle cx="1201.5" cy="3.5" r="3.5" fill="#FBB0B0"/>
<circle cx="1213.5" cy="3.5" r="3.5" fill="#FBB0B0"/>
<circle cx="1225.5" cy="3.5" r="3.5" fill="#FBB0B0"/>
<circle cx="1237.5" cy="3.5" r="3.5" fill="#FBB0B0"/>
<circle cx="1249.5" cy="3.5" r="3.5" fill="#FBB0B0"/>
<circle cx="1201.5" cy="15.5" r="3.5" fill="#FBB0B0"/>
<circle cx="1213.5" cy="15.5" r="3.5" fill="#FBB0B0"/>
<circle cx="1225.5" cy="15.5" r="3.5" fill="#FBB0B0"/>
<circle cx="1237.5" cy="15.5" r="3.5" fill="#FBB0B0"/>
<circle cx="1249.5" cy="15.5" r="3.5" fill="#FBB0B0"/>
<circle cx="1201.5" cy="27.5" r="3.5" fill="#FBB0B0"/>
<circle cx="1213.5" cy="27.5" r="3.5" fill="#FBB0B0"/>
<circle cx="1225.5" cy="27.5" r="3.5" fill="#FBB0B0"/>
<circle cx="1237.5" cy="27.5" r="3.5" fill="#FBB0B0"/>
<circle cx="1249.5" cy="27.5" r="3.5" fill="#FBB0B0"/>
<circle cx="1201.5" cy="39.5" r="3.5" fill="#FBB0B0"/>
<circle cx="1213.5" cy="39.5" r="3.5" fill="#FBB0B0"/>
<circle cx="1225.5" cy="39.5" r="3.5" fill="#FBB0B0"/>
<circle cx="1237.5" cy="39.5" r="3.5" fill="#FBB0B0"/>
<circle cx="1249.5" cy="39.5" r="3.5" fill="#FBB0B0"/>
<circle cx="1201.5" cy="51.5" r="3.5" fill="#FBB0B0"/>
<circle cx="1213.5" cy="51.5" r="3.5" fill="#FBB0B0"/>
<circle cx="1225.5" cy="51.5" r="3.5" fill="#FBB0B0"/>
<circle cx="1237.5" cy="51.5" r="3.5" fill="#FBB0B0"/>
<circle cx="1249.5" cy="51.5" r="3.5" fill="#FBB0B0"/>
<circle cx="1201.5" cy="63.5" r="3.5" fill="#FBB0B0"/>
<circle cx="1213.5" cy="63.5" r="3.5" fill="#FBB0B0"/>
<circle cx="1225.5" cy="63.5" r="3.5" fill="#FBB0B0"/>
<circle cx="1237.5" cy="63.5" r="3.5" fill="#FBB0B0"/>
<circle cx="1249.5" cy="63.5" r="3.5" fill="#FBB0B0"/>
<circle cx="1201.5" cy="75.5" r="3.5" fill="#FBB0B0"/>
<circle cx="1213.5" cy="75.5" r="3.5" fill="#FBB0B0"/>
<circle cx="1225.5" cy="75.5" r="3.5" fill="#FBB0B0"/>
<circle cx="1237.5" cy="75.5" r="3.5" fill="#FBB0B0"/>
<circle cx="1249.5" cy="75.5" r="3.5" fill="#FBB0B0"/>
<circle cx="1201.5" cy="87.5" r="3.5" fill="#FBB0B0"/>
<circle cx="1213.5" cy="87.5" r="3.5" fill="#FBB0B0"/>
<circle cx="1225.5" cy="87.5" r="3.5" fill="#FBB0B0"/>
<circle cx="1237.5" cy="87.5" r="3.5" fill="#FBB0B0"/>
<circle cx="1249.5" cy="87.5" r="3.5" fill="#FBB0B0"/>
<circle cx="1201.5" cy="99.5" r="3.5" fill="#FBB0B0"/>
<circle cx="1213.5" cy="99.5" r="3.5" fill="#FBB0B0"/>
<circle cx="1225.5" cy="99.5" r="3.5" fill="#FBB0B0"/>
<circle cx="1237.5" cy="99.5" r="3.5" fill="#FBB0B0"/>
<circle cx="1249.5" cy="99.5" r="3.5" fill="#FBB0B0"/>
<circle cx="1201.5" cy="111.5" r="3.5" fill="#FBB0B0"/>
<circle cx="1213.5" cy="111.5" r="3.5" fill="#FBB0B0"/>
<circle cx="1225.5" cy="111.5" r="3.5" fill="#FBB0B0"/>
<circle cx="1237.5" cy="111.5" r="3.5" fill="#FBB0B0"/>
<circle cx="1249.5" cy="111.5" r="3.5" fill="#FBB0B0"/>
<circle cx="176.5" cy="994.5" r="3.5" fill="#FBB0B0"/>
<circle cx="188.5" cy="994.5" r="3.5" fill="#FBB0B0"/>
<circle cx="200.5" cy="994.5" r="3.5" fill="#FBB0B0"/>
<circle cx="212.5" cy="994.5" r="3.5" fill="#FBB0B0"/>
<circle cx="224.5" cy="994.5" r="3.5" fill="#FBB0B0"/>
<circle cx="176.5" cy="1006.5" r="3.5" fill="#FBB0B0"/>
<circle cx="188.5" cy="1006.5" r="3.5" fill="#FBB0B0"/>
<circle cx="200.5" cy="1006.5" r="3.5" fill="#FBB0B0"/>
<circle cx="212.5" cy="1006.5" r="3.5" fill="#FBB0B0"/>
<circle cx="224.5" cy="1006.5" r="3.5" fill="#FBB0B0"/>
<circle cx="176.5" cy="1018.5" r="3.5" fill="#FBB0B0"/>
<circle cx="188.5" cy="1018.5" r="3.5" fill="#FBB0B0"/>
<circle cx="200.5" cy="1018.5" r="3.5" fill="#FBB0B0"/>
<circle cx="212.5" cy="1018.5" r="3.5" fill="#FBB0B0"/>
<circle cx="224.5" cy="1018.5" r="3.5" fill="#FBB0B0"/>
<circle cx="176.5" cy="1030.5" r="3.5" fill="#FBB0B0"/>
<circle cx="188.5" cy="1030.5" r="3.5" fill="#FBB0B0"/>
<circle cx="200.5" cy="1030.5" r="3.5" fill="#FBB0B0"/>
<circle cx="212.5" cy="1030.5" r="3.5" fill="#FBB0B0"/>
<circle cx="224.5" cy="1030.5" r="3.5" fill="#FBB0B0"/>
<circle cx="176.5" cy="1042.5" r="3.5" fill="#FBB0B0"/>
<circle cx="188.5" cy="1042.5" r="3.5" fill="#FBB0B0"/>
<circle cx="200.5" cy="1042.5" r="3.5" fill="#FBB0B0"/>
<circle cx="212.5" cy="1042.5" r="3.5" fill="#FBB0B0"/>
<circle cx="224.5" cy="1042.5" r="3.5" fill="#FBB0B0"/>
<circle cx="176.5" cy="1054.5" r="3.5" fill="#FBB0B0"/>
<circle cx="188.5" cy="1054.5" r="3.5" fill="#FBB0B0"/>
<circle cx="200.5" cy="1054.5" r="3.5" fill="#FBB0B0"/>
<circle cx="212.5" cy="1054.5" r="3.5" fill="#FBB0B0"/>
<circle cx="224.5" cy="1054.5" r="3.5" fill="#FBB0B0"/>
<circle cx="176.5" cy="1066.5" r="3.5" fill="#FBB0B0"/>
<circle cx="188.5" cy="1066.5" r="3.5" fill="#FBB0B0"/>
<circle cx="200.5" cy="1066.5" r="3.5" fill="#FBB0B0"/>
<circle cx="212.5" cy="1066.5" r="3.5" fill="#FBB0B0"/>
<circle cx="224.5" cy="1066.5" r="3.5" fill="#FBB0B0"/>
<circle cx="176.5" cy="1078.5" r="3.5" fill="#FBB0B0"/>
<circle cx="188.5" cy="1078.5" r="3.5" fill="#FBB0B0"/>
<circle cx="200.5" cy="1078.5" r="3.5" fill="#FBB0B0"/>
<circle cx="212.5" cy="1078.5" r="3.5" fill="#FBB0B0"/>
<circle cx="224.5" cy="1078.5" r="3.5" fill="#FBB0B0"/>
<circle cx="176.5" cy="1090.5" r="3.5" fill="#FBB0B0"/>
<circle cx="188.5" cy="1090.5" r="3.5" fill="#FBB0B0"/>
<circle cx="200.5" cy="1090.5" r="3.5" fill="#FBB0B0"/>
<circle cx="212.5" cy="1090.5" r="3.5" fill="#FBB0B0"/>
<circle cx="224.5" cy="1090.5" r="3.5" fill="#FBB0B0"/>
<circle cx="176.5" cy="1102.5" r="3.5" fill="#FBB0B0"/>
<circle cx="188.5" cy="1102.5" r="3.5" fill="#FBB0B0"/>
<circle cx="200.5" cy="1102.5" r="3.5" fill="#FBB0B0"/>
<circle cx="212.5" cy="1102.5" r="3.5" fill="#FBB0B0"/>
<circle cx="224.5" cy="1102.5" r="3.5" fill="#FBB0B0"/>
<circle cx="116.5" cy="994.5" r="3.5" fill="#FBB0B0"/>
<circle cx="128.5" cy="994.5" r="3.5" fill="#FBB0B0"/>
<circle cx="140.5" cy="994.5" r="3.5" fill="#FBB0B0"/>
<circle cx="152.5" cy="994.5" r="3.5" fill="#FBB0B0"/>
<circle cx="164.5" cy="994.5" r="3.5" fill="#FBB0B0"/>
<circle cx="116.5" cy="1006.5" r="3.5" fill="#FBB0B0"/>
<circle cx="128.5" cy="1006.5" r="3.5" fill="#FBB0B0"/>
<circle cx="140.5" cy="1006.5" r="3.5" fill="#FBB0B0"/>
<circle cx="152.5" cy="1006.5" r="3.5" fill="#FBB0B0"/>
<circle cx="164.5" cy="1006.5" r="3.5" fill="#FBB0B0"/>
<circle cx="116.5" cy="1018.5" r="3.5" fill="#FBB0B0"/>
<circle cx="128.5" cy="1018.5" r="3.5" fill="#FBB0B0"/>
<circle cx="140.5" cy="1018.5" r="3.5" fill="#FBB0B0"/>
<circle cx="152.5" cy="1018.5" r="3.5" fill="#FBB0B0"/>
<circle cx="164.5" cy="1018.5" r="3.5" fill="#FBB0B0"/>
<circle cx="116.5" cy="1030.5" r="3.5" fill="#FBB0B0"/>
<circle cx="128.5" cy="1030.5" r="3.5" fill="#FBB0B0"/>
<circle cx="140.5" cy="1030.5" r="3.5" fill="#FBB0B0"/>
<circle cx="152.5" cy="1030.5" r="3.5" fill="#FBB0B0"/>
<circle cx="164.5" cy="1030.5" r="3.5" fill="#FBB0B0"/>
<circle cx="116.5" cy="1042.5" r="3.5" fill="#FBB0B0"/>
<circle cx="128.5" cy="1042.5" r="3.5" fill="#FBB0B0"/>
<circle cx="140.5" cy="1042.5" r="3.5" fill="#FBB0B0"/>
<circle cx="152.5" cy="1042.5" r="3.5" fill="#FBB0B0"/>
<circle cx="164.5" cy="1042.5" r="3.5" fill="#FBB0B0"/>
<circle cx="116.5" cy="1054.5" r="3.5" fill="#FBB0B0"/>
<circle cx="128.5" cy="1054.5" r="3.5" fill="#FBB0B0"/>
<circle cx="140.5" cy="1054.5" r="3.5" fill="#FBB0B0"/>
<circle cx="152.5" cy="1054.5" r="3.5" fill="#FBB0B0"/>
<circle cx="164.5" cy="1054.5" r="3.5" fill="#FBB0B0"/>
<circle cx="116.5" cy="1066.5" r="3.5" fill="#FBB0B0"/>
<circle cx="128.5" cy="1066.5" r="3.5" fill="#FBB0B0"/>
<circle cx="140.5" cy="1066.5" r="3.5" fill="#FBB0B0"/>
<circle cx="152.5" cy="1066.5" r="3.5" fill="#FBB0B0"/>
<circle cx="164.5" cy="1066.5" r="3.5" fill="#FBB0B0"/>
<circle cx="116.5" cy="1078.5" r="3.5" fill="#FBB0B0"/>
<circle cx="128.5" cy="1078.5" r="3.5" fill="#FBB0B0"/>
<circle cx="140.5" cy="1078.5" r="3.5" fill="#FBB0B0"/>
<circle cx="152.5" cy="1078.5" r="3.5" fill="#FBB0B0"/>
<circle cx="164.5" cy="1078.5" r="3.5" fill="#FBB0B0"/>
<circle cx="116.5" cy="1090.5" r="3.5" fill="#FBB0B0"/>
<circle cx="128.5" cy="1090.5" r="3.5" fill="#FBB0B0"/>
<circle cx="140.5" cy="1090.5" r="3.5" fill="#FBB0B0"/>
<circle cx="152.5" cy="1090.5" r="3.5" fill="#FBB0B0"/>
<circle cx="164.5" cy="1090.5" r="3.5" fill="#FBB0B0"/>
<circle cx="116.5" cy="1102.5" r="3.5" fill="#FBB0B0"/>
<circle cx="128.5" cy="1102.5" r="3.5" fill="#FBB0B0"/>
<circle cx="140.5" cy="1102.5" r="3.5" fill="#FBB0B0"/>
<circle cx="152.5" cy="1102.5" r="3.5" fill="#FBB0B0"/>
<circle cx="164.5" cy="1102.5" r="3.5" fill="#FBB0B0"/>
<path d="M99.7737 332.368C101.454 331.396 104.049 327.8 104.048 327.794C104.047 327.788 101.168 326.825 100.979 326.789C98.7776 326.351 94.265 326.8 93.0433 328.999C92.8546 329.369 92.7454 329.775 92.7226 330.19C92.6998 330.605 92.764 331.02 92.9109 331.408C93.0579 331.797 93.2844 332.151 93.576 332.447C93.8676 332.743 94.2178 332.975 94.6042 333.127C96.2303 333.846 98.3142 333.193 99.7737 332.368Z" fill="#9C9C9C"/>
<path d="M127.274 297.193C127.316 297.185 125.405 294.801 125.263 294.661C123.691 293.104 119.657 290.968 117.426 292.127C117.061 292.33 116.742 292.608 116.491 292.942C116.24 293.276 116.061 293.659 115.968 294.066C115.874 294.474 115.867 294.896 115.947 295.306C116.027 295.716 116.193 296.105 116.433 296.447C117.406 297.927 119.505 298.536 121.182 298.65C123.152 298.784 127.269 297.2 127.274 297.193Z" fill="#9C9C9C"/>
<path d="M110.922 338.796C112.265 337.461 113.709 333.626 113.821 333.32C116.014 334.151 118.259 334.833 120.543 335.363C121.861 335.681 123.222 335.96 124.578 336.22C123.945 336.187 123.372 336.173 123.315 336.172C121.074 336.331 116.84 337.958 116.244 340.398C116.156 340.808 116.156 341.231 116.243 341.641C116.33 342.051 116.503 342.437 116.75 342.776C116.997 343.114 117.312 343.397 117.676 343.605C118.039 343.813 118.443 343.942 118.859 343.984C120.618 344.25 122.428 343.058 123.644 341.869C124.86 340.679 126.145 337.415 126.476 336.551L128.042 336.857C130.545 337.302 133.035 337.712 135.48 338.238C136.337 338.413 137.175 338.623 138.018 338.82C137.449 338.799 136.976 338.783 136.903 338.792C134.661 338.951 130.434 340.576 129.832 343.018C129.744 343.427 129.744 343.85 129.831 344.259C129.918 344.669 130.09 345.055 130.337 345.393C130.584 345.731 130.899 346.013 131.263 346.221C131.626 346.428 132.029 346.557 132.446 346.598C134.21 346.862 136.045 345.665 137.231 344.482C138.416 343.299 139.603 340.349 140.007 339.327C140.857 339.56 141.713 339.791 142.533 340.062C143.086 340.255 143.636 340.399 144.183 340.625L145.803 341.252C146.81 341.672 147.863 342.132 148.845 342.582C149.535 342.892 150.174 343.199 150.826 343.504C149.974 343.322 148.296 342.99 148.15 342.982C145.916 342.813 141.482 343.767 140.523 346.087C140.373 346.478 140.308 346.895 140.33 347.312C140.353 347.73 140.463 348.138 140.654 348.51C140.845 348.881 141.112 349.209 141.438 349.47C141.765 349.731 142.142 349.921 142.547 350.027C144.243 350.537 146.229 349.653 147.598 348.659C149.085 347.57 151.056 344.14 151.27 343.714C152.346 344.226 153.39 344.733 154.362 345.229C157.199 346.658 159.587 347.978 161.405 349.022L162.383 347.681C160.493 346.652 157.978 345.326 154.985 343.898C153.894 343.376 152.718 342.834 151.523 342.29C151.85 341.065 152.105 339.823 152.288 338.568C154.172 338.376 157.451 336.707 157.876 336.488C158.492 337.509 159.08 338.51 159.619 339.458C161.164 342.167 162.406 344.525 163.349 346.405L164.449 344.926C163.509 343.183 162.323 341.065 160.903 338.693C160.283 337.655 159.601 336.561 158.883 335.442C159.25 335.123 162.193 332.489 162.944 330.806C163.626 329.276 164.071 327.136 163.212 325.577C163.022 325.205 162.756 324.878 162.432 324.615C162.108 324.353 161.732 324.161 161.329 324.053C160.926 323.945 160.505 323.923 160.092 323.988C159.68 324.053 159.286 324.203 158.936 324.43C156.868 325.863 156.858 330.395 157.505 332.542C157.532 332.675 158.118 334.002 158.491 334.846C158.197 334.387 157.918 333.943 157.585 333.484C156.981 332.556 156.351 331.651 155.681 330.674C155.335 330.212 154.996 329.749 154.644 329.283C154.291 328.816 153.895 328.352 153.516 327.879C152.626 326.808 151.664 325.752 150.666 324.704C151.478 324.174 154.323 322.25 155.235 320.835C156.148 319.42 156.903 317.36 156.29 315.713C156.16 315.316 155.948 314.951 155.668 314.642C155.387 314.333 155.045 314.086 154.663 313.918C154.281 313.75 153.868 313.664 153.45 313.666C153.033 313.669 152.62 313.759 152.24 313.931C149.959 315.026 149.281 319.512 149.599 321.734C149.626 321.866 150.024 323.439 150.263 324.298C149.661 323.682 149.064 323.066 148.439 322.461C146.629 320.721 144.738 319.016 142.865 317.308C142.291 316.799 141.722 316.258 141.156 315.728C141.444 315.544 144.875 313.331 145.897 311.749C146.799 310.311 147.565 308.274 146.956 306.62C146.826 306.223 146.613 305.858 146.332 305.549C146.051 305.24 145.708 304.993 145.326 304.825C144.943 304.657 144.53 304.571 144.112 304.574C143.694 304.576 143.282 304.667 142.901 304.839C140.619 305.933 139.942 310.42 140.26 312.642C140.295 312.81 140.87 315.067 141.045 315.613C139.791 314.448 138.555 313.28 137.382 312.08C135.787 310.469 134.301 308.754 132.933 306.946C133.066 306.863 136.655 304.566 137.7 302.942C138.602 301.504 139.368 299.468 138.761 297.819C138.631 297.423 138.419 297.058 138.139 296.748C137.859 296.439 137.516 296.192 137.134 296.024C136.752 295.856 136.339 295.77 135.921 295.772C135.504 295.775 135.092 295.865 134.712 296.037C132.43 297.132 131.753 301.619 132.071 303.84C132.1 303.985 132.535 305.706 132.764 306.517L132.639 306.581C131.306 304.728 130.143 302.758 129.164 300.696C128.611 299.557 128.147 298.455 127.718 297.372C128.427 297.013 131.686 295.336 132.773 293.979C133.861 292.622 134.812 290.723 134.389 288.999C134.302 288.59 134.13 288.205 133.884 287.867C133.639 287.53 133.325 287.247 132.963 287.039C132.601 286.83 132.2 286.699 131.784 286.656C131.369 286.612 130.949 286.656 130.552 286.785C128.187 287.627 126.999 292.006 127.072 294.253C127.095 294.367 127.249 295.607 127.39 296.505C127.207 296.01 127.003 295.507 126.836 295.028C126.199 293.235 125.724 291.559 125.312 290.071C125.087 289.221 124.903 288.445 124.736 287.721C125.244 286.99 127.288 284.065 127.637 282.408C127.986 280.752 127.949 278.585 126.779 277.247C126.514 276.923 126.184 276.659 125.81 276.471C125.437 276.284 125.028 276.177 124.61 276.158C124.192 276.139 123.776 276.208 123.386 276.361C122.997 276.514 122.645 276.747 122.352 277.046C120.637 278.888 121.603 283.32 122.7 285.282C122.798 285.45 124.578 287.929 124.608 287.891L124.636 287.848C124.78 288.545 124.934 289.297 125.151 290.111C125.528 291.612 125.963 293.308 126.567 295.12C127.194 297.078 127.935 298.997 128.786 300.868C129.728 302.971 130.859 304.985 132.163 306.885L132.213 306.95C131.632 306.499 129.963 305.294 129.822 305.216C127.866 304.114 123.437 303.136 121.6 304.841C121.301 305.133 121.067 305.484 120.912 305.872C120.758 306.261 120.688 306.677 120.705 307.094C120.723 307.512 120.828 307.921 121.015 308.294C121.201 308.668 121.464 308.999 121.787 309.264C123.118 310.438 125.299 310.473 126.948 310.141C128.799 309.761 132.116 307.358 132.379 307.148C133.751 309.05 135.248 310.859 136.861 312.562C137.791 313.556 138.762 314.534 139.749 315.497C139.235 315.126 138.772 314.795 138.701 314.754C136.747 313.657 132.316 312.674 130.479 314.379C130.18 314.67 129.946 315.022 129.792 315.41C129.637 315.798 129.567 316.214 129.584 316.632C129.602 317.049 129.707 317.458 129.894 317.832C130.08 318.206 130.343 318.536 130.666 318.801C131.992 319.983 134.178 320.01 135.827 319.679C137.475 319.347 140.36 317.345 141.115 316.808C141.497 317.175 141.892 317.545 142.262 317.914C144.099 319.661 145.942 321.407 147.724 323.159C148.347 323.783 148.934 324.414 149.52 325.046C149.064 324.713 148.676 324.442 148.612 324.405C146.657 323.302 142.228 322.325 140.391 324.03C140.092 324.322 139.858 324.674 139.705 325.062C139.551 325.45 139.481 325.867 139.499 326.284C139.517 326.701 139.623 327.11 139.81 327.483C139.997 327.857 140.26 328.187 140.583 328.451C141.908 329.627 144.096 329.661 145.738 329.33C147.381 328.999 150.001 327.203 150.895 326.555C151.482 327.218 152.069 327.881 152.602 328.555C152.961 329.02 153.336 329.444 153.662 329.935C153.988 330.426 154.34 330.886 154.667 331.351C155.277 332.279 155.904 333.228 156.492 334.141C156.891 334.773 157.261 335.387 157.632 336C157.027 335.372 155.804 334.176 155.691 334.086C154.088 332.925 152.212 332.196 150.245 331.97C150.074 331.831 149.89 331.71 149.695 331.607C149.332 331.401 148.93 331.274 148.514 331.233C148.099 331.192 147.68 331.24 147.284 331.372C146.888 331.504 146.524 331.718 146.216 331.999C145.908 332.281 145.663 332.624 145.496 333.007C144.559 335.342 147.052 339.128 148.782 340.565C148.881 340.652 150.09 341.444 150.86 341.931L149.32 341.326C148.313 340.906 147.27 340.493 146.185 340.033L144.554 339.44C144.01 339.232 143.415 339.079 142.839 338.896C141.503 338.494 140.123 338.15 138.735 337.858C139.117 336.972 140.41 333.806 140.408 332.115C140.405 330.424 139.891 328.312 138.465 327.257C138.137 326.998 137.759 326.811 137.354 326.709C136.949 326.606 136.528 326.589 136.116 326.66C135.705 326.731 135.313 326.887 134.966 327.12C134.619 327.352 134.324 327.654 134.102 328.008C132.819 330.151 134.714 334.291 136.199 335.973C136.296 336.078 137.496 337.16 138.172 337.742C137.334 337.563 136.494 337.378 135.641 337.221C133.168 336.77 130.648 336.366 128.147 335.996C127.377 335.878 126.611 335.747 125.846 335.622C125.989 335.31 127.628 331.572 127.605 329.685C127.587 328.01 127.094 325.881 125.662 324.827C125.334 324.568 124.956 324.382 124.551 324.279C124.146 324.176 123.725 324.159 123.313 324.23C122.902 324.301 122.51 324.458 122.163 324.69C121.816 324.922 121.521 325.225 121.299 325.578C120.016 327.721 121.911 331.862 123.402 333.542C123.51 333.67 125.245 335.225 125.699 335.577C124.013 335.296 122.338 335.013 120.692 334.655C118.474 334.191 116.29 333.58 114.152 332.827C114.217 332.682 115.949 328.787 115.923 326.856C115.899 325.182 115.406 323.053 113.98 321.998C113.652 321.74 113.274 321.553 112.869 321.45C112.464 321.347 112.043 321.331 111.631 321.401C111.22 321.472 110.828 321.629 110.481 321.861C110.134 322.093 109.839 322.396 109.617 322.749C108.334 324.892 110.229 329.033 111.714 330.714C111.812 330.826 113.134 332.014 113.779 332.565L113.704 332.687C111.572 331.874 109.517 330.872 107.564 329.692C106.475 329.057 105.474 328.392 104.515 327.718C104.909 327.01 106.69 323.844 106.865 322.098C107.039 320.352 106.766 318.259 105.468 317.059C105.169 316.768 104.812 316.542 104.421 316.396C104.029 316.251 103.611 316.19 103.194 316.216C102.777 316.243 102.371 316.356 102.001 316.55C101.631 316.743 101.305 317.013 101.046 317.34C99.5414 319.353 100.97 323.658 102.261 325.492C102.331 325.591 103.161 326.523 103.775 327.193C103.348 326.886 102.903 326.576 102.495 326.271C101.007 325.123 99.6533 323.991 98.4916 322.97C97.8327 322.385 97.2523 321.846 96.7094 321.337C96.7472 320.452 96.844 316.892 96.2043 315.301C95.5645 313.709 94.3461 311.923 92.6371 311.471C92.2387 311.348 91.8187 311.31 91.4046 311.359C90.9904 311.409 90.5914 311.545 90.2334 311.759C89.8754 311.974 89.5665 312.261 89.3269 312.602C89.0872 312.943 88.9221 313.331 88.8424 313.741C88.4297 316.219 91.6782 319.38 93.6693 320.413C93.8442 320.502 96.6974 321.584 96.7008 321.539C96.6983 321.521 96.6946 321.503 96.6897 321.485C97.2038 322.006 97.7539 322.52 98.367 323.096C99.5035 324.116 100.814 325.313 102.315 326.49C103.92 327.776 105.598 328.97 107.34 330.064C109.285 331.285 111.334 332.332 113.463 333.193L113.544 333.221C112.812 333.164 110.752 333.079 110.592 333.093C108.351 333.252 104.123 334.878 103.521 337.319C103.433 337.729 103.433 338.152 103.52 338.562C103.607 338.972 103.78 339.359 104.027 339.697C104.273 340.036 104.589 340.318 104.952 340.526C105.316 340.734 105.719 340.864 106.136 340.905C107.898 341.158 109.738 339.985 110.922 338.796Z" fill="#9C9C9C"/>
<path d="M192.12 163.208C193.848 165.096 199.131 167.302 199.137 167.3C199.143 167.299 199.535 163.378 199.532 163.122C199.45 160.213 197.578 154.633 194.471 153.716C193.946 153.579 193.399 153.554 192.864 153.642C192.33 153.73 191.82 153.93 191.367 154.229C190.915 154.527 190.53 154.917 190.239 155.374C189.947 155.831 189.755 156.344 189.675 156.88C189.233 159.151 190.651 161.604 192.12 163.208Z" fill="#9C9C9C"/>
<path d="M244.55 187.876C244.561 187.93 247.055 184.819 247.181 184.605C248.721 182.127 250.24 176.459 248.129 173.954C247.767 173.55 247.324 173.227 246.829 173.006C246.335 172.784 245.799 172.67 245.257 172.669C244.715 172.669 244.179 172.782 243.683 173.003C243.188 173.223 242.745 173.546 242.382 173.949C240.787 175.61 240.622 178.438 240.956 180.588C241.355 183.112 244.549 187.87 244.55 187.876Z" fill="#9C9C9C"/>
<path d="M187.193 179.173C189.272 180.482 194.545 181.205 194.963 181.257C194.548 184.271 194.334 187.31 194.323 190.353C194.304 192.124 194.34 193.915 194.4 195.707C194.234 194.895 194.084 194.168 194.063 194.066C193.217 191.282 189.939 186.391 186.677 186.34C186.135 186.345 185.6 186.465 185.107 186.691C184.614 186.917 184.174 187.244 183.816 187.652C183.458 188.059 183.19 188.537 183.029 189.055C182.868 189.573 182.819 190.119 182.883 190.658C183.078 192.954 185.103 194.945 186.942 196.09C188.781 197.235 193.293 197.976 194.481 198.146C194.508 198.83 194.531 199.521 194.564 200.203C194.72 203.498 194.893 206.783 194.96 210.014C194.986 211.149 194.967 212.275 194.953 213.399C194.805 212.677 194.68 212.07 194.662 211.98C193.814 209.191 190.538 204.305 187.274 204.248C186.732 204.254 186.198 204.375 185.705 204.602C185.213 204.829 184.773 205.157 184.416 205.564C184.059 205.972 183.792 206.451 183.632 206.969C183.471 207.487 183.422 208.033 183.487 208.571C183.682 210.862 185.7 212.853 187.54 214.005C189.38 215.156 193.455 215.811 194.847 216.027C194.801 217.177 194.754 218.326 194.656 219.437C194.567 220.194 194.542 220.926 194.416 221.685L194.084 223.915C193.827 225.32 193.568 226.777 193.28 228.152C193.086 229.1 192.884 230.006 192.682 230.918C192.67 229.787 192.621 227.566 192.584 227.386C192.168 224.502 189.648 219.18 186.451 218.62C185.914 218.543 185.366 218.581 184.845 218.73C184.323 218.879 183.838 219.136 183.423 219.485C183.007 219.834 182.67 220.267 182.433 220.755C182.196 221.243 182.064 221.775 182.047 222.318C181.891 224.611 183.61 226.884 185.231 228.312C187.044 229.882 191.939 231.359 192.553 231.54C192.234 233.04 191.872 234.511 191.527 235.885C190.532 239.892 189.55 243.289 188.757 245.901L190.749 246.783C191.518 244.119 192.462 240.536 193.405 236.333C193.755 234.802 194.1 233.158 194.436 231.467C196.08 231.532 197.726 231.498 199.365 231.364C200.159 233.708 203.209 237.367 203.606 237.837C202.492 238.911 201.4 239.944 200.349 240.898C197.372 243.639 194.722 245.9 192.638 247.624L194.809 248.588C196.75 246.899 199.086 244.791 201.667 242.313C202.804 241.228 203.996 240.044 205.204 238.819C205.713 239.191 209.892 242.155 212.25 242.624C214.385 243.044 217.219 242.995 218.94 241.458C219.357 241.112 219.697 240.682 219.937 240.196C220.177 239.71 220.312 239.179 220.333 238.637C220.353 238.096 220.26 237.556 220.058 237.053C219.855 236.55 219.549 236.095 219.16 235.718C216.752 233.512 211.016 234.807 208.48 236.248C208.335 236.335 206.813 237.436 205.869 238.15C206.361 237.648 206.844 237.16 207.344 236.638C208.342 235.606 209.309 234.55 210.35 233.422L211.816 231.711C212.326 231.143 212.775 230.493 213.263 229.879C214.365 228.438 215.415 226.932 216.429 225.371C217.334 226.238 220.59 229.285 222.641 230.029C224.692 230.774 227.501 231.15 229.429 229.89C229.894 229.611 230.296 229.238 230.607 228.794C230.918 228.349 231.132 227.845 231.235 227.312C231.338 226.78 231.327 226.232 231.204 225.704C231.081 225.175 230.848 224.679 230.521 224.247C228.477 221.703 222.602 222.112 219.884 223.152C219.716 223.218 217.849 224.196 216.831 224.731C217.435 223.799 218.046 222.865 218.623 221.895C220.307 219.106 221.917 216.207 223.54 213.368C224.037 212.489 224.548 211.62 225.047 210.753C225.367 211.064 229.153 214.767 231.455 215.604C233.486 216.346 236.314 216.725 238.248 215.463C238.713 215.184 239.113 214.81 239.424 214.366C239.734 213.921 239.947 213.417 240.05 212.884C240.152 212.352 240.141 211.804 240.018 211.277C239.895 210.749 239.662 210.253 239.334 209.821C237.29 207.277 231.416 207.686 228.697 208.727C228.493 208.8 225.803 210.197 225.137 210.584C226.247 208.665 227.367 206.763 228.551 204.929C230.133 202.449 231.875 200.074 233.765 197.82C233.914 197.964 237.849 201.85 240.205 202.707C242.237 203.449 245.064 203.822 246.999 202.567C247.464 202.287 247.864 201.913 248.175 201.469C248.485 201.025 248.698 200.52 248.801 199.988C248.903 199.456 248.892 198.908 248.769 198.38C248.646 197.852 248.413 197.356 248.085 196.925C246.041 194.381 240.166 194.79 237.449 195.836C237.263 195.874 235.224 196.963 234.26 197.486L234.143 197.341C236.108 195.123 238.267 193.085 240.593 191.25C241.862 190.226 243.129 189.32 244.406 188.457C245.065 189.255 248.118 192.871 250.153 193.875C252.189 194.88 254.876 195.519 256.92 194.486C257.412 194.259 257.851 193.932 258.208 193.525C258.565 193.117 258.833 192.639 258.993 192.122C259.153 191.604 259.203 191.059 259.139 190.521C259.074 189.983 258.898 189.465 258.62 189C256.861 186.228 250.989 186.004 248.173 186.757C248.017 186.789 246.503 187.381 245.408 187.813C245.958 187.443 246.564 187.037 247.119 186.685C249.203 185.362 251.186 184.278 252.959 183.332C253.965 182.8 254.886 182.31 255.758 181.918C256.814 182.366 261.089 184.114 263.321 184.063C265.554 184.013 268.257 183.358 269.603 181.49C269.936 181.062 270.175 180.569 270.304 180.043C270.433 179.516 270.45 178.969 270.354 178.435C270.258 177.902 270.05 177.395 269.745 176.947C269.439 176.499 269.043 176.12 268.581 175.836C265.741 174.207 260.432 176.699 258.269 178.647C258.079 178.817 255.462 181.791 255.518 181.817L255.579 181.842C254.737 182.228 253.836 182.657 252.857 183.14C251.07 184.051 249.049 185.099 246.93 186.379C244.634 187.748 242.419 189.248 240.296 190.872C237.909 192.673 235.686 194.68 233.652 196.872L233.587 196.954C233.986 196.089 235.036 193.631 235.095 193.431C235.925 190.635 235.89 184.753 233.199 182.906C232.743 182.613 232.23 182.419 231.695 182.337C231.159 182.255 230.612 182.287 230.089 182.429C229.566 182.572 229.079 182.823 228.659 183.166C228.239 183.508 227.896 183.936 227.652 184.419C226.551 186.443 227.139 189.217 228.034 191.201C229.044 193.437 233.041 196.947 233.361 197.226C231.349 199.509 229.492 201.925 227.802 204.456C226.804 205.913 225.857 207.436 224.917 208.963C225.243 208.201 225.523 207.517 225.553 207.417C226.384 204.627 226.348 198.739 223.658 196.898C223.203 196.603 222.691 196.408 222.155 196.325C221.619 196.242 221.072 196.273 220.549 196.416C220.026 196.558 219.539 196.81 219.12 197.153C218.701 197.497 218.359 197.926 218.117 198.41C217.008 200.43 217.596 203.203 218.492 205.187C219.387 207.171 222.754 210.265 223.649 211.059L222.583 212.825C220.9 215.676 219.229 218.494 217.502 221.222C216.898 222.186 216.261 223.112 215.631 224.043C215.916 223.358 216.158 222.795 216.178 222.678C217.009 219.889 216.973 214.001 214.283 212.159C213.828 211.865 213.315 211.67 212.78 211.587C212.244 211.504 211.696 211.535 211.173 211.677C210.65 211.819 210.162 212.07 209.742 212.413C209.322 212.755 208.979 213.183 208.735 213.667C207.634 215.691 208.221 218.465 209.117 220.449C210.013 222.433 213.048 225.225 214.114 226.178C213.44 227.105 212.767 228.039 212.069 228.915C211.563 229.501 211.152 230.093 210.629 230.658L209.124 232.332C208.133 233.369 207.112 234.437 206.118 235.424C205.426 236.111 204.762 236.754 204.087 237.406C204.706 236.452 205.873 234.565 205.976 234.394C206.982 232.036 207.368 229.459 207.097 226.909C207.221 226.652 207.321 226.384 207.396 226.108C207.552 225.589 207.597 225.043 207.529 224.505C207.46 223.967 207.279 223.45 206.997 222.986C206.715 222.523 206.339 222.124 205.893 221.815C205.447 221.507 204.941 221.296 204.409 221.195C201.172 220.688 197.111 224.929 195.796 227.529C195.715 227.684 195.061 229.44 194.663 230.556C194.797 229.864 194.935 229.197 195.064 228.481C195.327 227.074 195.551 225.662 195.791 224.141C195.883 223.401 195.981 222.655 196.071 221.903C196.161 221.152 196.199 220.361 196.271 219.582C196.393 217.765 196.43 215.928 196.425 214.068C197.656 214.298 202.05 215.044 204.176 214.533C206.301 214.022 208.83 212.789 209.768 210.673C210.002 210.184 210.129 209.651 210.143 209.109C210.156 208.567 210.056 208.028 209.847 207.528C209.639 207.028 209.327 206.577 208.933 206.205C208.539 205.833 208.071 205.548 207.559 205.369C204.453 204.371 199.782 207.954 198.087 210.319C197.98 210.472 196.953 212.306 196.41 213.326C196.395 212.213 196.392 211.099 196.348 209.968C196.206 206.708 195.963 203.418 195.74 200.131C195.665 199.125 195.61 198.121 195.548 197.119C195.985 197.205 201.19 198.205 203.572 197.629C205.685 197.12 208.226 195.884 209.158 193.77C209.392 193.281 209.52 192.748 209.534 192.206C209.548 191.665 209.448 191.126 209.24 190.626C209.032 190.125 208.721 189.674 208.327 189.302C207.934 188.929 207.466 188.644 206.955 188.464C203.844 187.473 199.171 191.051 197.477 193.422C197.351 193.598 195.878 196.256 195.539 196.952C195.405 194.743 195.261 192.542 195.263 190.355C195.221 187.409 195.368 184.464 195.704 181.537C195.906 181.577 201.333 182.651 203.774 182.062C205.887 181.547 208.429 180.318 209.361 178.203C209.594 177.714 209.722 177.181 209.736 176.638C209.75 176.096 209.65 175.557 209.442 175.056C209.234 174.555 208.923 174.104 208.529 173.731C208.136 173.358 207.668 173.072 207.156 172.892C204.046 171.901 199.379 175.477 197.679 177.849C197.567 178.004 196.445 180.019 195.93 180.99L195.755 180.932C196.159 178.002 196.825 175.114 197.744 172.304C198.24 170.749 198.792 169.288 199.344 167.884C200.334 168.189 204.873 169.52 207.139 169.236C209.3 168.956 211.968 168.008 213.119 166.011C213.404 165.551 213.589 165.035 213.662 164.498C213.735 163.961 213.694 163.414 213.542 162.894C213.39 162.374 213.13 161.892 212.779 161.479C212.428 161.066 211.994 160.731 211.505 160.497C208.526 159.166 203.493 162.209 201.545 164.382C201.443 164.497 200.498 165.812 199.826 166.783C200.091 166.152 200.358 165.496 200.629 164.896C201.634 162.647 202.695 160.644 203.642 158.877C204.196 157.88 204.714 156.984 205.202 156.158C206.326 155.927 210.863 155.046 212.695 153.775C214.527 152.503 216.402 150.465 216.518 148.16C216.559 147.619 216.486 147.075 216.302 146.564C216.119 146.053 215.83 145.586 215.454 145.194C215.078 144.802 214.623 144.494 214.12 144.29C213.617 144.086 213.077 143.99 212.534 144.009C209.278 144.201 206.212 149.228 205.48 152.047C205.418 152.292 204.876 156.218 204.93 156.207L205.003 156.192C204.537 156.977 203.992 157.834 203.447 158.779C202.458 160.523 201.349 162.511 200.285 164.747C199.118 167.149 198.091 169.617 197.209 172.138C196.212 174.956 195.468 177.858 194.984 180.808L194.969 180.917C194.831 179.968 194.342 177.343 194.282 177.143C193.435 174.353 190.158 169.468 186.896 169.417C186.354 169.423 185.82 169.543 185.328 169.769C184.836 169.996 184.397 170.323 184.04 170.73C183.682 171.138 183.415 171.615 183.254 172.133C183.094 172.65 183.044 173.195 183.108 173.733C183.333 176.024 185.352 178.016 187.193 179.173Z" fill="#9C9C9C"/>
<path d="M245.263 277.546L244.85 275.532C242.722 265.161 255.761 262.017 254.246 254.634C253.589 251.43 250.55 249.873 246.667 250.669C242.416 251.541 240.203 254.407 240.877 257.69L241.046 258.513C241.213 259.331 240.847 259.807 240.024 259.976L231.984 261.312C231.238 261.465 230.639 261.199 230.533 260.682L230.364 259.859C228.514 250.84 234.403 243.173 244.924 241.015C255.217 238.904 263.048 243.362 264.838 252.086C267.378 264.471 254.041 267.288 255.431 274.064L255.706 275.404C255.761 275.572 255.778 275.749 255.755 275.924C255.732 276.099 255.67 276.266 255.572 276.413C255.475 276.56 255.346 276.684 255.195 276.774C255.043 276.864 254.873 276.918 254.698 276.933L246.792 278.555C246.624 278.61 246.447 278.627 246.272 278.604C246.097 278.581 245.93 278.518 245.783 278.421C245.636 278.324 245.512 278.195 245.422 278.043C245.332 277.892 245.278 277.722 245.263 277.546ZM247.056 289.709C246.383 286.426 248.741 283.142 252.246 282.423C255.607 281.733 259.14 283.809 259.814 287.092C260.487 290.374 258.032 293.679 254.623 294.378C251.214 295.077 247.727 292.979 247.053 289.697L247.056 289.709Z" fill="#263238" fill-opacity="0.5"/>
<path d="M70.1015 224.448L69.7426 222.699C67.8928 213.681 79.2382 210.959 77.9223 204.544C77.3501 201.754 74.7124 200.409 71.3456 201.1C67.6481 201.858 65.7453 204.341 66.3299 207.191L66.4766 207.906C66.6221 208.616 66.3039 209.019 65.5885 209.166L58.6035 210.33C57.9542 210.463 57.4367 210.231 57.3442 209.78L57.1974 209.064C55.5943 201.248 60.7009 194.562 69.8394 192.688C78.7794 190.854 85.5882 194.726 87.1408 202.296C89.347 213.051 77.7571 215.498 78.9669 221.396L79.2061 222.562C79.254 222.707 79.2683 222.861 79.2482 223.013C79.228 223.164 79.1738 223.309 79.0897 223.436C79.0056 223.564 78.8937 223.671 78.7624 223.749C78.6311 223.827 78.4838 223.875 78.3316 223.888L71.4237 225.305C71.2801 225.352 71.1279 225.366 70.9781 225.347C70.8283 225.327 70.6848 225.274 70.558 225.192C70.4312 225.11 70.3244 225.001 70.2454 224.872C70.1664 224.743 70.1172 224.598 70.1015 224.448ZM71.6398 235.003C71.0553 232.153 73.1019 229.302 76.1441 228.678C79.06 228.08 82.1357 229.88 82.7202 232.73C83.3047 235.58 81.186 238.445 78.21 239.055C76.8035 239.381 75.3254 239.137 74.098 238.377C72.8705 237.618 71.9934 236.403 71.6579 234.999L71.6398 235.003Z" fill="#FB1B1C" fill-opacity="0.5"/>
<path d="M201.059 125.694L200.878 124.811C199.944 120.259 205.663 118.88 204.999 115.639C204.71 114.232 203.373 113.548 201.672 113.897C199.808 114.279 198.838 115.537 199.134 116.98L199.208 117.341C199.282 117.701 199.117 117.904 198.756 117.978L195.23 118.564C194.899 118.632 194.637 118.516 194.591 118.288L194.517 117.927C193.704 113.965 196.291 110.603 200.908 109.655C205.423 108.729 208.863 110.686 209.649 114.516C210.759 119.927 204.908 121.183 205.513 124.135L205.637 124.737C205.661 124.81 205.668 124.888 205.658 124.965C205.648 125.042 205.62 125.115 205.577 125.179C205.534 125.244 205.477 125.297 205.41 125.336C205.343 125.375 205.268 125.399 205.191 125.404L201.722 126.116C201.651 126.14 201.575 126.148 201.5 126.139C201.425 126.131 201.353 126.105 201.289 126.064C201.226 126.024 201.172 125.97 201.132 125.906C201.092 125.842 201.067 125.769 201.059 125.694ZM201.846 131.027C201.692 130.473 201.709 129.886 201.893 129.341C202.078 128.796 202.422 128.319 202.881 127.973C203.34 127.626 203.893 127.426 204.468 127.398C205.042 127.37 205.612 127.515 206.103 127.815C206.593 128.115 206.983 128.556 207.22 129.08C207.456 129.604 207.53 130.188 207.431 130.754C207.332 131.321 207.065 131.844 206.664 132.257C206.263 132.67 205.748 132.952 205.184 133.068C204.831 133.154 204.464 133.169 204.105 133.113C203.746 133.057 203.402 132.93 203.092 132.741C202.781 132.551 202.512 132.302 202.298 132.008C202.084 131.714 201.931 131.381 201.846 131.027Z" fill="#FB1B1C" fill-opacity="0.5"/>
<path d="M57.1601 281.916L56.932 280.804C55.7555 275.068 62.9676 273.332 62.129 269.244C61.7653 267.47 60.0856 266.612 57.9212 267.056C55.5704 267.538 54.3481 269.123 54.7205 270.939L54.813 271.39C54.9068 271.846 54.7022 272.101 54.2453 272.195L49.7991 272.938C49.3842 273.023 49.0525 272.872 48.9933 272.583L48.9008 272.132C47.8772 267.142 51.1363 262.903 56.9561 261.709C62.6496 260.541 66.9767 263.005 67.967 267.833C69.3716 274.681 61.9973 276.237 62.7681 279.995L62.9198 280.734C62.951 280.827 62.9606 280.926 62.948 281.023C62.9354 281.12 62.9008 281.213 62.8469 281.295C62.793 281.376 62.7212 281.445 62.6369 281.495C62.5527 281.544 62.4582 281.574 62.3606 281.582L57.9958 282.478C57.9036 282.507 57.806 282.514 57.7103 282.501C57.6146 282.487 57.5232 282.452 57.4429 282.398C57.3627 282.344 57.2956 282.272 57.2466 282.189C57.1977 282.106 57.1681 282.012 57.1601 281.916V281.916ZM58.1501 288.636C57.9577 287.937 57.9801 287.197 58.2144 286.511C58.4487 285.825 58.884 285.226 59.4637 284.791C60.0434 284.356 60.7405 284.106 61.4644 284.073C62.1883 284.04 62.9054 284.225 63.5224 284.605C64.1393 284.986 64.6275 285.543 64.9234 286.204C65.2194 286.866 65.3093 287.601 65.1815 288.314C65.0538 289.027 64.7142 289.686 64.2071 290.203C63.6999 290.721 63.0487 291.074 62.3382 291.216C61.4394 291.431 60.4921 291.28 59.7045 290.797C58.9169 290.313 58.3534 289.537 58.138 288.638L58.1501 288.636Z" stroke="#263238" stroke-opacity="0.5" stroke-miterlimit="10"/>
<path d="M91.1845 166.789L91.0279 166.025C90.2189 162.081 95.1792 160.882 94.6033 158.075C94.3567 156.872 93.1982 156.264 91.7192 156.567C90.1019 156.899 89.2599 157.986 89.5164 159.237L89.5805 159.55C89.6447 159.862 89.5047 160.035 89.1921 160.099L86.1626 160.602C85.88 160.66 85.6532 160.562 85.6125 160.364L85.5484 160.051C84.8443 156.618 87.0843 153.703 91.0824 152.883C95.0805 152.062 97.9151 153.787 98.5958 157.105C99.5627 161.819 94.4886 162.891 95.0176 165.47L95.1224 165.981C95.1435 166.045 95.1499 166.112 95.1412 166.178C95.1324 166.245 95.1088 166.308 95.072 166.364C95.0351 166.42 94.9862 166.466 94.9287 166.5C94.8712 166.535 94.8067 166.555 94.7401 166.561L91.734 167.177C91.672 167.193 91.6073 167.195 91.5444 167.184C91.4814 167.172 91.4218 167.147 91.3695 167.11C91.3173 167.073 91.2736 167.025 91.2417 166.97C91.2097 166.914 91.1902 166.853 91.1845 166.789ZM91.8692 171.41C91.7442 170.935 91.7645 170.433 91.9276 169.97C92.0906 169.507 92.3889 169.103 92.7838 168.811C93.1787 168.519 93.6521 168.352 94.1429 168.332C94.6336 168.312 95.119 168.44 95.5365 168.698C95.954 168.957 96.2842 169.335 96.4846 169.784C96.685 170.232 96.7463 170.73 96.6605 171.214C96.5748 171.697 96.3459 172.144 96.0036 172.496C95.6613 172.848 95.2212 173.09 94.7402 173.189C94.1236 173.338 93.4733 173.235 92.932 172.905C92.3908 172.574 92.0029 172.042 91.8536 171.426L91.8692 171.41Z" fill="#263238" fill-opacity="0.5"/>
<path d="M213.972 313.36L213.815 312.597C213.006 308.653 217.968 307.46 217.391 304.646C217.144 303.444 215.986 302.836 214.507 303.139C212.89 303.471 212.048 304.558 212.304 305.809L212.368 306.121C212.432 306.434 212.294 306.613 211.981 306.677L208.951 307.179C208.669 307.237 208.441 307.134 208.4 306.935L208.336 306.622C207.632 303.19 209.872 300.274 213.87 299.454C217.868 298.634 220.769 300.345 221.451 303.669C222.416 308.377 217.342 309.449 217.871 312.028L217.976 312.539C217.997 312.603 218.003 312.67 217.995 312.737C217.986 312.803 217.963 312.867 217.926 312.923C217.889 312.98 217.841 313.027 217.783 313.062C217.726 313.097 217.662 313.118 217.595 313.125L214.589 313.741C214.524 313.768 214.453 313.779 214.382 313.773C214.312 313.768 214.244 313.745 214.183 313.708C214.123 313.671 214.073 313.62 214.036 313.56C213.999 313.499 213.977 313.431 213.972 313.36V313.36ZM214.657 317.981C214.532 317.506 214.552 317.005 214.715 316.542C214.878 316.078 215.177 315.675 215.571 315.383C215.966 315.091 216.44 314.924 216.93 314.904C217.421 314.884 217.907 315.011 218.324 315.27C218.742 315.529 219.072 315.907 219.272 316.355C219.473 316.803 219.534 317.302 219.448 317.785C219.362 318.269 219.134 318.716 218.791 319.068C218.449 319.42 218.009 319.661 217.528 319.761C216.912 319.902 216.265 319.794 215.728 319.461C215.192 319.127 214.809 318.595 214.663 317.98L214.657 317.981Z" stroke="#263238" stroke-opacity="0.5" stroke-miterlimit="10"/>
<path d="M193.242 331.872C193.174 331.754 193.106 331.637 193.032 331.52C192.958 331.404 192.895 331.279 192.821 331.163C192.747 331.046 192.685 330.928 192.611 330.811C192.537 330.695 192.474 330.57 192.4 330.453C192.326 330.337 192.264 330.218 192.19 330.102C192.116 329.985 192.052 329.861 191.978 329.744L191.768 329.393C191.699 329.269 191.625 329.153 191.557 329.035L191.347 328.683C191.278 328.56 191.204 328.443 191.136 328.326L190.926 327.974C190.857 327.85 190.783 327.734 190.715 327.616L190.506 327.239C190.437 327.116 190.363 326.999 190.295 326.882L190.079 326.531C190.01 326.408 189.942 326.29 189.868 326.174C189.794 326.057 189.732 325.938 189.658 325.822C189.584 325.706 189.521 325.581 189.447 325.464C189.373 325.348 189.311 325.229 189.237 325.113C186.053 319.551 179.095 316.417 172.428 317.785C165.965 319.11 161.115 324.027 159.858 329.811C159.823 329.943 159.795 330.081 159.765 330.212L159.679 330.618C159.644 330.751 159.614 330.882 159.586 331.019C159.558 331.157 159.523 331.289 159.493 331.42L159.406 331.821C159.372 331.959 159.342 332.09 159.314 332.228C159.286 332.365 159.249 332.492 159.221 332.629C159.193 332.766 159.156 332.893 159.128 333.03L159.041 333.43C159.005 333.563 158.977 333.7 158.948 333.832C158.918 333.963 158.884 334.102 158.855 334.233L158.769 334.639C158.733 334.772 158.704 334.903 158.676 335.04C158.647 335.178 158.612 335.31 158.583 335.442L158.495 335.842C158.461 335.98 158.432 336.111 158.404 336.249C158.375 336.386 158.339 336.513 158.31 336.65L158.223 337.05C158.188 337.183 158.16 337.32 158.13 337.451C158.101 337.583 158.067 337.721 158.038 337.859C157.457 340.267 157.42 342.774 157.928 345.199C159.913 354.879 169.893 361.076 180.228 358.957C190.34 356.882 197.513 347.166 195.527 337.487C195.147 335.642 194.448 333.877 193.462 332.272C193.384 332.106 193.316 331.988 193.242 331.872Z" fill="#263238" fill-opacity="0.5"/>
<path d="M151.625 201.643C120.62 208.002 103.254 230.579 108.713 257.189L109.206 259.594C109.293 259.99 109.481 260.357 109.751 260.659C110.022 260.962 110.366 261.189 110.75 261.319C110.906 261.418 111.07 261.501 111.24 261.57C111.396 261.67 111.563 261.753 111.736 261.819C111.892 261.919 112.059 262.002 112.232 262.068C112.387 262.169 112.554 262.253 112.728 262.317C112.882 262.417 113.046 262.501 113.218 262.567C113.374 262.669 113.541 262.755 113.715 262.823C113.872 262.92 114.038 263.004 114.211 263.072C114.367 263.171 114.534 263.255 114.707 263.321C114.861 263.421 115.025 263.505 115.197 263.571C115.366 263.678 115.546 263.767 115.734 263.837C115.879 263.923 116.031 263.999 116.187 264.063C116.345 264.161 116.511 264.245 116.683 264.312C116.839 264.411 117.003 264.494 117.173 264.563C117.331 264.661 117.497 264.744 117.669 264.812C117.826 264.911 117.992 264.995 118.165 265.061C118.319 265.161 118.484 265.245 118.655 265.311C118.811 265.411 118.978 265.494 119.151 265.561C119.305 265.66 119.469 265.744 119.641 265.811C119.798 265.909 119.964 265.992 120.137 266.06C120.291 266.16 120.455 266.244 120.627 266.31C121.447 266.779 122.418 266.908 123.332 266.67L142.815 263.426C144.805 263.018 145.702 261.894 145.294 259.904L144.887 257.92C143.255 249.966 148.612 243.034 158.941 240.915C168.338 238.988 175.7 242.747 177.295 250.52C177.476 251.406 177.573 252.307 177.583 253.212C170.489 267.924 146.383 278.714 151.448 303.406L152.666 309.345C153.159 311.75 154.749 312.809 157.171 312.312L180.45 307.537C182.855 307.044 183.92 305.453 183.424 303.036L182.611 299.074C178.507 279.066 217.823 270.77 210.336 234.27C205.061 208.55 181.968 195.419 151.625 201.643Z" fill="#FB1B1C" fill-opacity="0.5"/>
<path d="M152.639 309.364L151.42 303.424C145.151 272.858 183.584 263.621 179.115 241.833C177.175 232.376 168.213 227.78 156.778 230.126C144.243 232.697 137.735 241.136 139.72 250.81L140.213 253.215C140.706 255.62 139.613 257.009 137.196 257.505L113.483 261.448C111.289 261.898 109.524 261.113 109.208 259.574L108.715 257.17C103.257 230.56 120.623 207.983 151.627 201.624C181.971 195.4 205.045 208.535 210.323 234.267C217.81 270.766 178.494 279.062 182.598 299.071L183.411 303.033C183.904 305.438 182.854 307.038 180.437 307.533L157.14 312.312C154.721 312.827 153.134 311.781 152.639 309.364ZM157.928 345.199C155.944 335.525 162.893 325.849 173.228 323.729C183.124 321.699 193.544 327.813 195.528 337.486C197.512 347.16 190.316 356.856 180.222 358.926C169.875 361.049 159.907 354.848 157.928 345.199Z" fill="#FB1B1C" fill-opacity="0.5" stroke="#FB1B1C" stroke-opacity="0.5" stroke-miterlimit="10"/>
<path d="M183.303 378.838C201.436 375.118 215.461 368.816 214.63 364.762C213.798 360.708 198.425 360.437 180.292 364.156C162.159 367.875 148.134 374.177 148.965 378.231C149.797 382.286 165.17 382.557 183.303 378.838Z" fill="#263238" fill-opacity="0.5"/>
<path d="M122.55 210.144L121.856 213.143C121.856 213.143 114.719 215.428 114.831 215.975C114.943 216.522 115.794 220.276 116.223 220.351C116.549 220.406 116.884 220.337 117.161 220.158L127.347 215.206L127.372 210.132L122.55 210.144Z" fill="white" fill-opacity="0.5" stroke="#263238" stroke-opacity="0.5" stroke-linecap="round" stroke-linejoin="round"/>
<path d="M121.511 215.463C120.4 216.83 119.157 218.084 117.799 219.207C116.222 220.345 116.399 221.543 116.952 221.429C117.505 221.316 121.989 218.253 121.989 218.253C121.989 218.253 126.205 216.173 126.775 215.686C127.346 215.2 127.014 213.213 127.014 213.213" fill="white" fill-opacity="0.5"/>
<path d="M121.511 215.463C120.4 216.83 119.157 218.084 117.799 219.207C116.222 220.345 116.399 221.543 116.952 221.429C117.505 221.316 121.989 218.253 121.989 218.253C121.989 218.253 126.205 216.173 126.775 215.686C127.346 215.2 127.014 213.213 127.014 213.213" stroke="#263238" stroke-opacity="0.5" stroke-linecap="round" stroke-linejoin="round"/>
<path d="M118.165 156.148L120.732 191.446L121.429 210.699L128.691 210.914L129.339 187.838L128.944 173.478L118.165 156.148Z" fill="#7D7D7D" fill-opacity="0.5" stroke="#263238" stroke-opacity="0.5" stroke-linecap="round" stroke-linejoin="round"/>
<path d="M149.253 123.834L146.429 123.963L140.39 122.99L141.551 129.687L150.403 128.705L149.253 123.834Z" fill="white" fill-opacity="0.5" stroke="#263238" stroke-opacity="0.5" stroke-linecap="round" stroke-linejoin="round"/>
<path d="M142.28 252.302C140.729 255.097 139.335 257.977 138.104 260.927C136.514 264.937 138.111 268.569 141.163 268.939C144.215 269.309 147.345 265.967 147.883 263.733C148.421 261.499 147.922 260.473 148.995 258.129C150.068 255.785 150.876 253.496 149.778 250.889C148.679 248.283 143.357 250.101 142.28 252.302Z" fill="#7D7D7D" fill-opacity="0.5" stroke="#263238" stroke-opacity="0.5" stroke-linecap="round" stroke-linejoin="round"/>
<path d="M147.711 264.301C147.435 263.931 147.124 263.544 146.764 263.135C143.794 259.741 140.027 260.834 137.769 262.042C136.85 265.595 138.41 268.621 141.179 268.955C143.948 269.289 146.857 266.487 147.711 264.301Z" fill="white" fill-opacity="0.5" stroke="#263238" stroke-opacity="0.5" stroke-linecap="round" stroke-linejoin="round"/>
<path d="M146.764 263.135C146.199 264.504 145.785 268.01 141.291 267.516C140.054 267.455 138.867 267.009 137.897 266.239C138.138 266.953 138.575 267.586 139.157 268.065C139.739 268.545 140.444 268.852 141.191 268.952C144.236 269.318 147.373 265.98 147.911 263.746C148.449 261.512 147.95 260.486 149.023 258.142C150.096 255.799 150.905 253.509 149.806 250.902C150.474 254.161 149.383 254.949 148.231 257.027C147.078 259.105 147.33 261.741 146.764 263.135Z" fill="white" fill-opacity="0.5" stroke="#263238" stroke-opacity="0.5" stroke-linecap="round" stroke-linejoin="round"/>
<path d="M182.375 244.078C184.902 246.037 187.317 248.135 189.61 250.362C192.65 253.423 192.611 257.39 189.952 258.932C187.292 260.474 183.099 258.633 181.725 256.791C180.351 254.949 180.406 253.81 178.497 252.078C176.588 250.346 174.943 248.559 174.927 245.731C174.911 242.902 180.495 242.484 182.375 244.078Z" fill="#7D7D7D" fill-opacity="0.5" stroke="#263238" stroke-opacity="0.5" stroke-linecap="round" stroke-linejoin="round"/>
<path d="M182.112 257.244C182.215 256.797 182.348 256.319 182.518 255.802C183.912 251.512 187.805 251.033 190.357 251.256C192.6 254.16 192.357 257.555 189.943 258.952C187.529 260.35 183.753 258.919 182.112 257.244Z" fill="white" fill-opacity="0.5" stroke="#263238" stroke-opacity="0.5" stroke-linecap="round" stroke-linejoin="round"/>
<path d="M182.518 255.802C183.576 256.838 185.338 259.897 189.274 257.674C190.387 257.131 191.302 256.253 191.891 255.163C191.95 255.915 191.798 256.669 191.452 257.339C191.106 258.009 190.579 258.568 189.931 258.955C187.276 260.489 183.078 258.656 181.704 256.814C180.331 254.972 180.385 253.833 178.476 252.101C176.567 250.369 174.922 248.582 174.906 245.754C175.575 249.012 176.888 249.307 178.766 250.764C180.643 252.22 181.449 254.743 182.518 255.802Z" fill="white" fill-opacity="0.5" stroke="#263238" stroke-opacity="0.5" stroke-linecap="round" stroke-linejoin="round"/>
<path d="M179.133 195.894C178.631 193.447 173.865 191.593 173.865 191.593C166.199 186.443 154.927 189.644 150.819 191.088C146.487 191.35 134.858 192.871 129.838 200.623C129.838 200.623 126.187 204.204 126.689 206.651C127.191 209.098 141.551 252.169 141.551 252.169C141.551 252.169 141.887 254.506 145.748 253.996C149.609 253.486 150.769 250.987 150.769 250.987L144.602 213.314C144.602 213.314 149.823 207.707 150.896 207.349C151.282 207.214 151.782 207.024 152.344 206.833L152.359 206.905C153.39 206.46 154.501 206.232 155.624 206.236L155.609 206.163C156.225 206.112 156.729 206.096 157.143 206.068C158.258 205.977 165.278 209.073 165.278 209.073L174.439 246.132C174.439 246.132 176.513 247.968 180.24 246.922C183.966 245.875 183.378 243.59 183.378 243.59C183.378 243.59 179.635 198.341 179.133 195.894Z" fill="#263238" fill-opacity="0.5" stroke="#263238" stroke-opacity="0.5" stroke-linecap="round" stroke-linejoin="round"/>
<path d="M165.272 209.074C165.272 209.074 162.614 200.272 165.862 196.066" stroke="#707070" stroke-linecap="round" stroke-linejoin="round"/>
<path d="M144.62 213.31C144.62 213.31 143.496 205.754 142.121 203.204C140.746 200.654 139.164 199.844 139.164 199.844" stroke="#707070" stroke-linecap="round" stroke-linejoin="round"/>
<path d="M145.995 194.478C145.995 194.478 151.372 198.612 153.054 202.659" stroke="#707070" stroke-linecap="round" stroke-linejoin="round"/>
<path d="M155.565 192.815C155.565 192.815 153.676 196.035 153.823 198.128" stroke="#707070" stroke-linecap="round" stroke-linejoin="round"/>
<path d="M146.003 140.671C148.007 139.933 150.056 139.322 152.137 138.843C154.855 138.285 157.577 137.871 157.577 137.871L163.032 129.955L148.72 129.633L148.526 123.163C148.526 123.163 158.439 120.421 163.66 120.34C168.881 120.259 177.265 121.09 177.674 121.006C178.083 120.922 178.931 122.308 178.744 123.474C178.557 124.64 168.676 141.402 165.611 145.853C163.615 148.812 161.787 151.881 160.135 155.045L164.606 185.704C164.606 185.704 169.593 187.231 170.578 187.875C171.562 188.519 173.181 191.589 173.181 191.589C173.181 191.589 164.194 189.893 161.962 190.068C159.73 190.244 158.349 190.383 157.777 189.674C157.206 188.964 146.363 153.359 146.363 153.359L144.132 141.782C144.132 141.782 143.965 141.089 146.003 140.671Z" fill="#7D7D7D" fill-opacity="0.5" stroke="#263238" stroke-opacity="0.5" stroke-linecap="round" stroke-linejoin="round"/>
<path d="M157.974 157.613L150.828 160.068L152.064 162.646L155.933 162.843L159.128 160.49L157.974 157.613Z" stroke="#263238" stroke-opacity="0.5" stroke-linecap="round" stroke-linejoin="round"/>
<path d="M158.837 140.444L160.134 155.045L161.869 142.091" stroke="#263238" stroke-opacity="0.5" stroke-linecap="round" stroke-linejoin="round"/>
<path d="M163.057 129.95C163.057 129.95 166.593 129.932 171.34 126.835" stroke="#263238" stroke-opacity="0.5" stroke-linecap="round" stroke-linejoin="round"/>
<path d="M166.786 130.174C169.031 129.779 171.225 129.14 173.331 128.268" stroke="#263238" stroke-opacity="0.5" stroke-linecap="round" stroke-linejoin="round"/>
<path d="M133.96 142.007L136.674 151.788C137.461 152.476 138.397 152.969 139.409 153.228C140.421 153.487 141.48 153.505 142.5 153.281C145.87 152.452 145.776 149.921 145.776 149.921L144.104 141.769L133.96 142.007Z" fill="white" fill-opacity="0.5" stroke="#263238" stroke-opacity="0.5" stroke-linecap="round" stroke-linejoin="round"/>
<path d="M144.933 145.138L146.337 153.358L148.273 148.288C148.273 148.288 152.207 151.584 152.992 151.285C153.776 150.987 152.088 149.629 151.512 148.193C150.935 146.758 147.532 141.924 146.955 140.488C146.379 139.053 143.737 139.307 143.726 140.017C143.771 140.619 143.893 141.213 144.089 141.784L144.933 145.138Z" fill="#7D7D7D" fill-opacity="0.5" stroke="#263238" stroke-opacity="0.5" stroke-linecap="round" stroke-linejoin="round"/>
<path d="M137.065 154.396C137.065 154.396 145.41 192.33 144.14 193.041C142.87 193.753 137.459 194.982 134.366 197.314C131.273 199.646 129.813 200.654 129.813 200.654C129.813 200.654 130.635 196.381 132.178 194.223C133.211 192.825 134.43 191.573 135.801 190.504L128.538 173.023C128.538 173.023 118.474 157.1 118.141 156.179C117.808 155.257 128.864 145.628 131.192 143.872C133.519 142.117 134.429 143.07 134.429 143.07L137.065 154.396Z" fill="#7D7D7D" fill-opacity="0.5" stroke="#263238" stroke-opacity="0.5" stroke-linecap="round" stroke-linejoin="round"/>
<path d="M130.965 141.914C130.965 141.914 129.825 152.911 129.827 154.327C129.829 155.742 130.106 155.685 130.866 154.533C131.626 153.381 133.594 150.578 133.594 150.578L137.065 154.396L135.283 146.41L134.335 141.787C134.335 141.787 133.813 139.914 130.965 141.914Z" fill="#7D7D7D" fill-opacity="0.5" stroke="#263238" stroke-opacity="0.5" stroke-linecap="round" stroke-linejoin="round"/>
<path d="M129.152 165.51L137.166 163.867L137.702 167.152L134.417 169.098L129.682 168.797L129.152 165.51Z" stroke="#263238" stroke-opacity="0.5" stroke-linecap="round" stroke-linejoin="round"/>
<path d="M143.832 125.26C143.832 125.26 147.431 133.155 148.114 134.406C148.796 135.656 147.31 141.512 146.724 142.904C146.515 143.499 146.169 144.036 145.715 144.473C145.26 144.91 144.71 145.234 144.108 145.42C143.158 145.615 137.632 144.913 136.238 144.347C134.844 143.781 133.434 143.08 133.434 143.08C132.911 143.462 132.286 143.683 131.639 143.716C130.991 143.748 130.348 143.592 129.788 143.264C127.852 142.101 125.313 140.78 125.604 139.449C125.745 138.796 126.083 138.202 126.572 137.747C127.061 137.293 127.679 137 128.34 136.908C129.837 136.601 129.268 136.573 129.268 136.573C129.268 136.573 125.743 133.193 125.101 130.066C124.46 126.94 129.829 123.458 133.226 122.761C135.595 122.377 138.016 122.457 140.354 122.997L143.832 125.26Z" fill="white" fill-opacity="0.5" stroke="#263238" stroke-opacity="0.5" stroke-linecap="round" stroke-linejoin="round"/>
<path d="M139.717 129.355L143.112 133.477L140.999 135.608L139.632 134.472" stroke="#263238" stroke-opacity="0.5" stroke-linecap="round" stroke-linejoin="round"/>
<path d="M145.066 132.65C145.066 132.65 145.421 133.711 144.155 135.813" stroke="#263238" stroke-opacity="0.5" stroke-linecap="round" stroke-linejoin="round"/>
<path d="M137.486 131.586C137.617 132.223 137.446 132.797 137.122 132.864C136.797 132.93 136.414 132.47 136.284 131.832C136.153 131.195 136.323 130.621 136.648 130.555C136.973 130.488 137.355 130.949 137.486 131.586Z" fill="#263238" fill-opacity="0.5"/>
<path d="M141.551 129.687C141.889 129.617 142.058 129.044 141.927 128.407C141.796 127.769 141.416 127.309 141.077 127.378C140.738 127.448 140.57 128.021 140.701 128.658C140.831 129.296 141.212 129.756 141.551 129.687Z" fill="#263238" fill-opacity="0.5"/>
<path d="M127.706 121.2C127.706 121.2 119.798 126.08 120.325 130.081C120.851 134.083 129.858 137.893 130.407 138.489C130.955 139.084 131.868 137.337 131.868 137.337C131.522 137.027 131.246 136.647 131.06 136.221C130.874 135.795 130.783 135.334 130.792 134.87C130.922 133.427 132.352 131.417 132.216 130.756C132.081 130.095 130.289 131.715 129.871 129.677C129.453 127.639 134.229 125.387 137.244 124.907C140.259 124.426 143.877 128.928 145.551 126.035C147.226 123.141 143.955 123.111 143.955 123.111C143.955 123.111 148.051 121.7 147.606 119.53C147.161 117.359 144.676 116.303 143.726 116.498C142.776 116.692 140.533 118.857 140.17 117.089C139.808 115.322 142.219 113.975 139.192 111.651C136.166 109.327 133.625 112.793 133.848 113.881C134.072 114.97 133.671 117.169 133.13 117.28C132.589 117.391 130.453 115.286 128.832 117.034C128.353 117.606 128.005 118.274 127.811 118.993C127.617 119.712 127.581 120.465 127.706 121.2Z" fill="#263238" fill-opacity="0.5" stroke="#263238" stroke-opacity="0.5" stroke-linecap="round" stroke-linejoin="round"/>
<path d="M133.388 130.942L137.4 128.415" stroke="#263238" stroke-opacity="0.5" stroke-linecap="round" stroke-linejoin="round"/>
<path d="M137.689 126.375C137.518 125.966 137.496 125.51 137.625 125.085" stroke="#263238" stroke-opacity="0.5" stroke-linecap="round" stroke-linejoin="round"/>
<path d="M137.623 125.073C137.806 124.409 138.338 123.492 139.736 122.547" stroke="white" stroke-opacity="0.5" stroke-linecap="round" stroke-linejoin="round"/>
</svg>
