<svg width="48" height="48" viewBox="0 0 48 48" fill="none" xmlns="http://www.w3.org/2000/svg">
<path d="M4.5 33V13.5C3.70435 13.5 2.94129 13.8161 2.37868 14.3787C1.81607 14.9413 1.5 15.7044 1.5 16.5V37.5C1.5 38.2956 1.81607 39.0587 2.37868 39.6213C2.94129 40.1839 3.70435 40.5 4.5 40.5H18.57C15.7603 38.5481 12.4212 37.5013 9 37.5C7.80653 37.5 6.66193 37.0259 5.81802 36.182C4.97411 35.3381 4.5 34.1935 4.5 33ZM43.5 13.5V33C43.5 34.1935 43.0259 35.3381 42.182 36.182C41.3381 37.0259 40.1935 37.5 39 37.5C35.5788 37.5013 32.2397 38.5481 29.43 40.5H43.5C44.2957 40.5 45.0587 40.1839 45.6213 39.6213C46.1839 39.0587 46.5 38.2956 46.5 37.5V16.5C46.5 15.7044 46.1839 14.9413 45.6213 14.3787C45.0587 13.8161 44.2957 13.5 43.5 13.5Z" fill="#FB1B1C"/>
<path d="M9 7.5C8.60218 7.5 8.22064 7.65804 7.93934 7.93934C7.65804 8.22064 7.5 8.60218 7.5 9V33C7.5 33.3978 7.65804 33.7794 7.93934 34.0607C8.22064 34.342 8.60218 34.5 9 34.5C13.5126 34.5047 17.8906 36.038 21.42 38.85L22.5 39.72V7.77C22.019 7.59537 21.5117 7.50406 21 7.5H9ZM40.5 33V9C40.5 8.60218 40.342 8.22064 40.0607 7.93934C39.7794 7.65804 39.3978 7.5 39 7.5H27C26.4883 7.50406 25.981 7.59537 25.5 7.77V39.72L26.58 38.85C30.1094 36.038 34.4874 34.5047 39 34.5C39.3978 34.5 39.7794 34.342 40.0607 34.0607C40.342 33.7794 40.5 33.3978 40.5 33Z" fill="#FB1B1C"/>
</svg>
