<svg width="19" height="19" viewBox="0 0 19 19" fill="none" xmlns="http://www.w3.org/2000/svg">
<path d="M13.458 2.37502C13.6659 2.16709 13.9128 2.00215 14.1844 1.88962C14.4561 1.77709 14.7473 1.71918 15.0413 1.71918C15.3354 1.71918 15.6266 1.77709 15.8982 1.88962C16.1699 2.00215 16.4167 2.16709 16.6247 2.37502C16.8326 2.58294 16.9975 2.82979 17.1101 3.10145C17.2226 3.37312 17.2805 3.6643 17.2805 3.95835C17.2805 4.2524 17.2226 4.54357 17.1101 4.81524C16.9975 5.08691 16.8326 5.33376 16.6247 5.54168L5.93717 16.2292L1.58301 17.4167L2.77051 13.0625L13.458 2.37502Z" stroke="#FB1B1C" stroke-width="2" stroke-linecap="round" stroke-linejoin="round"/>
</svg>
