<svg width="37" height="27" viewBox="0 0 37 27" fill="none" xmlns="http://www.w3.org/2000/svg">
<path d="M31.1578 16.579H25.3157H22.3947H11.6842V15.6316C11.6842 13.5389 9.94029 11.8421 7.78942 11.8421H4.86837C2.7175 11.8421 0.973633 13.5389 0.973633 15.6316V18.4737C0.973633 20.5664 2.7175 22.2632 4.86837 22.2632H6.81574H7.78942H21.421H22.3947H29.2105H30.1842H32.1315C34.2824 22.2632 36.0263 20.5664 36.0263 18.4737V16.579H31.1578Z" fill="#99AAB5"/>
<path d="M10.7105 4.26316H7.93158C4.86837 4.26316 3.89469 6.1579 3.89469 6.1579L0.973633 11.8033V16.5789H13.6315V13.7368V11.8421V7.10526C13.6315 5.53548 12.3239 4.26316 10.7105 4.26316Z" fill="#FFCC4D"/>
<path d="M9.73669 11.8421H2.9209L4.86827 8.05263C4.86827 8.05263 5.84195 6.15789 7.78932 6.15789H9.73669V11.8421Z" fill="#55ACEE"/>
<path d="M10.7104 22.2632C10.7104 24.3559 8.9665 26.0526 6.81564 26.0526C4.66477 26.0526 2.9209 24.3559 2.9209 22.2632C2.9209 20.1704 4.66477 18.4737 6.81564 18.4737C8.9665 18.4737 10.7104 20.1704 10.7104 22.2632Z" fill="#292F33"/>
<path d="M8.7629 22.2632C8.7629 23.3091 7.89048 24.1579 6.81553 24.1579C5.74059 24.1579 4.86816 23.3091 4.86816 22.2632C4.86816 21.2173 5.74059 20.3684 6.81553 20.3684C7.89048 20.3684 8.7629 21.2173 8.7629 22.2632Z" fill="#CCD6DD"/>
<path d="M34.0785 22.2632C34.0785 24.3559 32.3347 26.0526 30.1838 26.0526C28.0329 26.0526 26.2891 24.3559 26.2891 22.2632C26.2891 20.1704 28.0329 18.4737 30.1838 18.4737C32.3347 18.4737 34.0785 20.1704 34.0785 22.2632Z" fill="#292F33"/>
<path d="M32.1311 22.2632C32.1311 23.3091 31.2586 24.1579 30.1837 24.1579C29.1087 24.1579 28.2363 23.3091 28.2363 22.2632C28.2363 21.2173 29.1087 20.3684 30.1837 20.3684C31.2586 20.3684 32.1311 21.2173 32.1311 22.2632Z" fill="#CCD6DD"/>
<path d="M24.3422 22.2632C24.3422 24.3559 22.5983 26.0526 20.4475 26.0526C18.2966 26.0526 16.5527 24.3559 16.5527 22.2632C16.5527 20.1704 18.2966 18.4737 20.4475 18.4737C22.5983 18.4737 24.3422 20.1704 24.3422 22.2632Z" fill="#292F33"/>
<path d="M22.3947 22.2632C22.3947 23.3091 21.5223 24.1579 20.4474 24.1579C19.3724 24.1579 18.5 23.3091 18.5 22.2632C18.5 21.2173 19.3724 20.3684 20.4474 20.3684C21.5223 20.3684 22.3947 21.2173 22.3947 22.2632Z" fill="#CCD6DD"/>
<path d="M32.1317 0.473686H19.4738C17.323 0.473686 15.5791 2.17042 15.5791 4.26316V16.5789H36.0265V4.26316C36.0265 2.17042 34.2826 0.473686 32.1317 0.473686Z" fill="#77B255"/>
</svg>
