<svg width="32" height="23" viewBox="0 0 32 23" fill="none" xmlns="http://www.w3.org/2000/svg">
<g clip-path="url(#clip0_1957_7027)">
<path d="M31.2933 3.58736C31.1097 2.89398 30.7517 2.26185 30.2548 1.75391C29.758 1.24598 29.1396 0.879956 28.4613 0.6923C25.978 0 15.9838 0 15.9838 0C15.9838 0 5.98903 0.0209555 3.50577 0.713256C2.82746 0.900923 2.20908 1.26696 1.7122 1.77492C1.21533 2.28288 0.857302 2.91504 0.673774 3.60844C-0.077351 8.11874 -0.368726 14.9914 0.694399 19.3213C0.877946 20.0147 1.23598 20.6468 1.73286 21.1547C2.22973 21.6627 2.8481 22.0287 3.5264 22.2163C6.00965 22.9086 16.0042 22.9086 16.0042 22.9086C16.0042 22.9086 25.9985 22.9086 28.4817 22.2163C29.16 22.0287 29.7784 21.6627 30.2753 21.1548C30.7722 20.6468 31.1302 20.0147 31.3138 19.3213C32.106 14.8046 32.3502 7.93628 31.2933 3.58749V3.58736Z" fill="#FF0000"/>
<path d="M12.8027 16.3632L21.0939 11.4543L12.8029 6.54529L12.8027 16.3632Z" fill="white"/>
</g>
<defs>
<clipPath id="clip0_1957_7027">
<rect width="32" height="23" fill="white"/>
</clipPath>
</defs>
</svg>
